<svg width="30" height="24" viewBox="0 0 30 24" fill="none" xmlns="http://www.w3.org/2000/svg">
<g clip-path="url(#clip0_1261_4639)">
<path d="M18.7547 9.13125C18.2438 9.2625 17.8219 9.33281 17.3906 9.4875C17.0484 9.57656 16.7016 9.67031 16.3031 9.77344L16.275 9.77813C16.0781 9.83438 16.0594 9.83906 15.8766 9.62812C15.6563 9.37969 15.4969 9.22031 15.1922 9.07031C14.2688 8.62031 13.3781 8.75156 12.5484 9.29062C11.5547 9.93281 11.0438 10.8844 11.0578 12.0656C11.0719 13.2375 11.8734 14.1984 12.9891 14.3578C14.0203 14.4891 14.8547 14.1422 15.5109 13.3969C15.6094 13.275 15.6984 13.1484 15.7969 13.0078C15.8344 12.9609 15.8672 12.9094 15.9047 12.8531H13.0875C12.7828 12.8531 12.7078 12.6656 12.8109 12.4172C12.9984 11.9625 13.35 11.2031 13.5563 10.8234C13.5984 10.7391 13.7016 10.5516 13.8797 10.5516H18.6188C18.8297 9.92344 19.1719 9.29062 19.6313 8.69062C20.6953 7.28906 21.9422 6.55781 23.7188 6.25312C25.2094 5.99062 26.6109 6.13594 27.8859 6.99844C29.0391 7.78594 29.7516 8.85469 29.9438 10.2562C30.1922 12.2297 29.6203 13.8328 28.2234 15.2062C27.3 16.1859 26.1188 16.8 24.7594 17.0766C24.4969 17.1234 24.2391 17.1469 23.9859 17.1703C23.85 17.1797 23.7188 17.1937 23.5875 17.2078C22.2609 17.1797 21.0469 16.8 20.025 15.9234C19.3078 15.3 18.8109 14.5359 18.5672 13.65C18.3938 13.9922 18.1922 14.325 17.9109 14.6391C16.8984 16.0266 15.525 16.8891 13.7906 17.1187C12.3563 17.3109 11.0297 17.0344 9.85782 16.1578C8.77969 15.3375 8.16563 14.2594 8.00625 12.9141C7.81407 11.3203 8.28282 9.84844 9.24375 8.63437C10.2844 7.275 11.6578 6.4125 13.3359 6.10781C14.7094 5.81719 16.0219 6.01875 17.2078 6.825C17.9813 7.33594 18.5344 8.03437 18.9 8.88281C18.9891 9.01406 18.9281 9.08906 18.7547 9.13125ZM2.26407 9.39375C2.20547 9.39375 2.19094 9.36562 2.22 9.31875L2.52703 8.925C2.5561 8.88281 2.62922 8.85469 2.68782 8.85469H7.90313C7.95938 8.85469 7.97344 8.89687 7.94532 8.93906L7.69688 9.31875C7.66875 9.36562 7.59375 9.40781 7.55157 9.40781L2.26407 9.39375ZM0.0584097 10.7391C3.4757e-06 10.7391 -0.0146215 10.7062 0.0146285 10.6641L0.321332 10.2703C0.350582 10.2281 0.423613 10.1953 0.481878 10.1953H7.14375C7.2 10.1953 7.22813 10.2422 7.21407 10.2844L7.09688 10.6359C7.08282 10.6922 7.02657 10.725 6.96563 10.725L0.0584097 10.7391ZM3.54938 11.9953C3.52032 12.0375 3.53485 12.0797 3.59297 12.0797L6.77813 12.0937C6.82032 12.0937 6.88125 12.0516 6.88125 11.9953L6.90938 11.6437C6.90938 11.5828 6.88125 11.5406 6.82032 11.5406H3.9C3.84141 11.5406 3.78328 11.5828 3.75375 11.6297L3.54938 11.9953ZM27.0563 11.1516C27.0469 11.0297 27.0422 10.9266 27.0234 10.8234C26.7609 9.37969 25.4297 8.55937 24.0422 8.88281C22.6828 9.1875 21.8063 10.05 21.4875 11.4234C21.225 12.5625 21.7781 13.7156 22.8281 14.1844C23.6344 14.5359 24.4359 14.4937 25.2094 14.0953C26.3625 13.4578 26.9906 12.5625 27.0656 11.3062C27.0609 11.25 27.0609 11.1984 27.0563 11.1516Z" fill="#00B4E0"/>
</g>
<defs>
<clipPath id="clip0_1261_4639">
<rect width="30" height="24" fill="white"/>
</clipPath>
</defs>
</svg>
