<svg width="24" height="24" viewBox="0 0 24 24" fill="none" xmlns="http://www.w3.org/2000/svg">
<g clip-path="url(#clip0_1261_4623)">
<path d="M23.2633 5.42C23.2719 5.45191 23.2764 5.48482 23.2764 5.51791V10.6605C23.2764 10.7948 23.2046 10.9189 23.0879 10.9857L18.7718 13.4709V18.3964C18.7718 18.4623 18.7545 18.527 18.7216 18.5841C18.6887 18.6412 18.6414 18.6887 18.5844 18.7217L9.57457 23.9084C9.55394 23.92 9.53148 23.9275 9.50893 23.9355C9.50048 23.9383 9.49257 23.9435 9.48366 23.9458C9.42068 23.9624 9.35447 23.9624 9.29148 23.9458C9.28112 23.9431 9.27175 23.9374 9.26194 23.9336C9.2413 23.9261 9.21975 23.9195 9.20012 23.9084L0.192117 18.7216C0.134887 18.6888 0.0873339 18.6414 0.0542484 18.5843C0.021163 18.5272 0.00371472 18.4624 0.00366211 18.3964L0.00366211 2.96873C0.00366211 2.93491 0.00838938 2.90209 0.016753 2.87027C0.0195712 2.85945 0.0261167 2.84964 0.0299348 2.83882C0.0369348 2.81918 0.0435712 2.799 0.0538439 2.78073C0.0608439 2.76855 0.0711167 2.75873 0.0795712 2.74745C0.0903894 2.73245 0.100208 2.717 0.112844 2.70382C0.123662 2.69309 0.137753 2.68509 0.149935 2.67573C0.163571 2.66445 0.175662 2.65227 0.191117 2.64336H0.191571L4.69575 0.0500906C4.75281 0.0173103 4.81745 6.00815e-05 4.88325 6.00815e-05C4.94905 6.00815e-05 5.0137 0.0173103 5.07075 0.0500906L9.57493 2.64336H9.57584C9.59084 2.65282 9.60357 2.66445 9.61712 2.67527C9.6293 2.68464 9.64293 2.69309 9.65366 2.70345C9.66684 2.717 9.67621 2.73255 9.68739 2.74745C9.69539 2.75873 9.70621 2.76855 9.71275 2.78073C9.72348 2.79945 9.72957 2.81918 9.73712 2.83891C9.74084 2.84964 9.74739 2.85945 9.75021 2.87073C9.75884 2.90264 9.7633 2.93564 9.76339 2.96873V12.6045L13.5167 10.4434V5.51745C13.5167 5.48473 13.5214 5.45136 13.5298 5.42C13.5331 5.40873 13.5392 5.39891 13.5429 5.38818C13.5505 5.36845 13.557 5.34818 13.5673 5.33C13.5743 5.31782 13.5846 5.308 13.5927 5.29673C13.6038 5.28173 13.6132 5.26627 13.6263 5.25309C13.6372 5.24236 13.6508 5.23436 13.6629 5.225C13.677 5.21373 13.6892 5.20155 13.7042 5.19264H13.7047L18.2093 2.59936C18.2663 2.56649 18.331 2.54919 18.3968 2.54919C18.4626 2.54919 18.5273 2.56649 18.5843 2.59936L23.0885 5.19264C23.1044 5.202 23.1166 5.21373 23.1307 5.22445C23.1423 5.23391 23.1559 5.24236 23.1668 5.25264C23.1798 5.26627 23.1892 5.28173 23.2004 5.29673C23.2089 5.308 23.2192 5.31782 23.2258 5.33C23.2366 5.34818 23.2427 5.36845 23.2501 5.38818C23.2544 5.39891 23.2605 5.40873 23.2633 5.42ZM22.5256 10.4435V6.16709L20.9493 7.07445L18.7718 8.32827V12.6046L22.526 10.4435H22.5256ZM18.0214 18.1794V13.9L15.8794 15.1234L9.76293 18.6143V22.9337L18.0214 18.1794ZM0.75448 3.61782V18.1794L9.01203 22.9334V18.6147L4.69821 16.1733L4.69684 16.1724L4.69503 16.1715C4.68048 16.163 4.66821 16.1508 4.65466 16.1405C4.64284 16.1311 4.6293 16.1236 4.61903 16.1133L4.61812 16.1119C4.60594 16.1002 4.59748 16.0856 4.58721 16.0725C4.57775 16.0598 4.56657 16.0491 4.55903 16.036L4.55857 16.0345C4.55012 16.0205 4.54494 16.0036 4.53884 15.9877C4.53275 15.9736 4.52484 15.9605 4.52103 15.9455V15.9451C4.51639 15.9273 4.51548 15.9085 4.51357 15.8902C4.51175 15.8762 4.50794 15.8621 4.50794 15.848V5.77909L2.33075 4.52473L0.75448 3.61836V3.61782ZM4.88375 0.808454L1.13084 2.96873L4.88284 5.12891L8.63521 2.96818L4.88284 0.808454H4.88375ZM6.83539 14.2901L9.01248 13.0368V3.61782L7.43639 4.52527L5.25866 5.779V15.1979L6.83539 14.2901ZM18.3968 3.35773L14.6444 5.51791L18.3968 7.67818L22.1487 5.51745L18.3968 3.35773ZM18.0213 8.32827L15.8438 7.07445L14.2676 6.16709V10.4435L16.4447 11.6968L18.0214 12.6046L18.0213 8.32827ZM9.38703 17.9652L14.8909 14.823L17.6422 13.2528L13.8926 11.094L9.57539 13.5795L5.64066 15.8447L9.38703 17.9652Z" fill="#FF2D20"/>
</g>
<defs>
<clipPath id="clip0_1261_4623">
<rect width="23.28" height="24" fill="white"/>
</clipPath>
</defs>
</svg>
