<svg width="214" height="80" viewBox="0 0 214 80" fill="none" xmlns="http://www.w3.org/2000/svg">
<path d="M41.9 3.81257C40.5719 3.80506 39.2363 3.93262 37.9608 4.27777L36.3851 10.0028L36.8953 4.62293C36.7302 4.69046 36.5576 4.75799 36.4001 4.82552C34.9669 5.4633 33.6764 6.46124 32.806 7.75932L34.3216 13.5744L32.1907 8.90733C31.5304 10.4905 31.4929 12.3364 32.1007 13.9346C32.7609 15.6528 34.1491 17.0785 35.8523 17.7688L39.3864 11.7811L51.2942 10.8732L56.6591 4.97558C55.6686 5.09564 54.6782 5.14816 53.6802 5.13315L47.0023 6.87393L51.1816 4.96808C49.1182 4.73548 47.0773 4.31529 45.0214 4.05267L40.3243 8.68223L43.7158 3.91011C43.108 3.85759 42.5003 3.82007 41.8925 3.82007L41.9 3.81257Z" fill="white"/>
<path d="M56.4714 50.4547L54.1528 52.9758L58.2797 47.2657L57.6719 49.1191L56.4714 50.4547Z" fill="white"/>
<path d="M39.3858 26.8592L26.9378 33.7022H20.2974V47.2607L24.4242 52.9708L22.0982 50.4496V61.7272L34.8688 76.6363L34.9289 52.7232L30.3969 48.8364L30.4269 54.5165L29.3164 47.9135L25.8573 44.9497L25.2271 37.9116L29.2338 40.6878L29.3089 37.8741L29.609 40.9504L39.3858 47.7034V26.8592Z" fill="white"/>
<path d="M39.3109 47.7081V63.6452L37.21 52.7278L38.9657 48.5409L39.3109 47.7081Z" fill="white"/>
<path d="M43.7007 76.6403L43.6406 52.7272L52.7197 44.9537L44.7361 53.2224L44.7886 73.699L56.4713 61.7312L43.7007 76.6403Z" fill="white"/>
<path d="M52.7197 44.951L53.3575 37.9129L53.4626 45.4237L52.7197 44.951Z" fill="white"/>
<path d="M58.4518 33.7022L51.3836 34.7902L40.4663 29.2752L40.4513 45.625L53.5221 37.9116L39.3633 47.7034L39.3858 26.8592L51.8113 33.7022H58.4518Z" fill="white"/>
<path d="M42.9956 18.3271V20.0679L52.6299 23.7296C50.2513 21.261 43.986 18.7248 42.9956 18.3271Z" fill="white"/>
<path d="M35.7698 18.3317C34.9819 18.6394 28.5816 21.2055 26.1505 23.7266C23.6519 26.3153 21.2583 33.3459 21.2583 33.3459H26.9308L35.7622 28.4837V18.3317H35.7698Z" fill="white"/>
<path d="M39.3859 26.4954V12.4492L36.0845 18.0091V28.3112L39.3859 26.4954Z" fill="white"/>
<path d="M133.869 36.6908V40.3749H142.895C143.608 40.3749 144.201 40.3974 144.688 40.4425C145.191 40.4875 145.596 40.63 145.896 40.8551C146.219 41.0652 146.444 41.3954 146.587 41.8531C146.722 42.3108 146.797 42.9561 146.797 43.7814C146.797 44.6068 146.729 45.2146 146.587 45.6798C146.452 46.115 146.219 46.4451 145.896 46.6777C145.596 46.9103 145.199 47.0454 144.688 47.0904C144.208 47.1354 143.608 47.1579 142.895 47.1579H133.869V58.8031H138.416V50.8496H141.379L147.24 58.8031H152.439L146.309 50.707C147.277 50.5945 148.08 50.3994 148.725 50.1218C149.393 49.8216 149.918 49.4089 150.308 48.8837C150.721 48.3585 151.006 47.6757 151.171 46.8503C151.359 46.0249 151.449 45.0045 151.449 43.7889C151.449 42.2733 151.299 41.0577 151.006 40.1423C150.729 39.1969 150.256 38.4766 149.596 37.9739C148.928 37.4711 148.042 37.1335 146.939 36.9759C145.836 36.7958 144.472 36.6983 142.843 36.6983H133.891L133.869 36.6908Z" fill="white"/>
<path d="M93.2969 36.6908V40.3749H102.323C103.036 40.3749 103.629 40.3974 104.117 40.4425C104.619 40.4875 105.025 40.63 105.325 40.8551C105.647 41.0652 105.872 41.3954 106.015 41.8531C106.15 42.3108 106.225 42.9561 106.225 43.7814C106.225 44.6068 106.158 45.2146 106.015 45.6798C105.88 46.115 105.647 46.4451 105.325 46.6777C105.025 46.9103 104.627 47.0454 104.117 47.0904C103.636 47.1354 103.036 47.1579 102.323 47.1579H93.2969V58.8031H97.8439V50.8496H100.808C102.451 50.8046 104.087 50.7595 105.73 50.7145C106.698 50.602 107.501 50.4069 108.146 50.1293C108.814 49.8291 109.339 49.4165 109.729 48.8912C110.142 48.366 110.427 47.6832 110.592 46.8578C110.78 46.0324 110.87 45.012 110.87 43.7965C110.87 42.2808 110.72 41.0652 110.427 40.1498C110.149 39.2044 109.677 38.4841 109.016 37.9814C108.349 37.4786 107.463 37.141 106.36 36.9834C105.257 36.8033 103.892 36.7058 102.263 36.7058H93.3119L93.2969 36.6908Z" fill="white"/>
<path d="M118.695 49.3714H123.655L121.899 43.6239L121.284 40.1423H121.074L120.451 43.6239L118.695 49.3714ZM123.692 36.6908L131.511 58.8106H126.551L124.623 52.5754H117.697L115.806 58.8106H110.847L118.665 36.6908H123.692Z" fill="white"/>
<path d="M181.207 49.3714H186.167L184.411 43.6239L183.796 40.1423H183.586L182.963 43.6239L181.207 49.3714ZM186.197 36.6908L194.015 58.8106H189.056L187.127 52.5754H180.202L178.311 58.8106H173.351L181.17 36.6908H186.197Z" fill="white"/>
<path d="M73.0913 44.6492V48.3334H82.1178C82.8306 48.3334 83.4234 48.3559 83.9111 48.4009C84.4138 48.4459 84.819 48.5885 85.1192 48.8136C85.4418 49.0237 85.6669 49.3538 85.8095 49.8115C85.9445 50.2692 86.0196 50.9145 86.0196 51.7399C86.0196 52.5653 85.952 53.173 85.8095 53.6382C85.6744 54.0734 85.4418 54.4036 85.1192 54.6362C84.819 54.8688 84.4213 55.0038 83.9111 55.0489C83.4309 55.0939 82.8306 55.1164 82.1178 55.1164H73.0913V58.8005H80.6021C82.2454 58.7555 83.8811 58.7105 85.5243 58.6655C86.4923 58.5529 87.2951 58.3578 87.9404 58.0802C88.6082 57.7801 89.1334 57.3674 89.5236 56.8422C89.9363 56.3169 90.2214 55.6341 90.3865 54.8087C90.5741 53.9834 90.6641 52.9629 90.6641 51.7474C90.6641 50.2317 90.5141 49.0162 90.2214 48.1008C89.9438 47.1553 89.4711 46.435 88.8108 45.9323C88.143 45.4296 87.2576 45.0919 86.1546 44.9344C85.0516 44.7543 83.686 44.6567 82.0578 44.6567H73.1063L73.0913 44.6492Z" fill="white"/>
<path d="M90.5591 40.3795H73.0913V36.6954H90.5591V40.3795Z" fill="white"/>
<path d="M173.349 40.3795H155.881V36.6954H173.349V40.3795Z" fill="white"/>
<path d="M162.717 58.796V41.3282H166.401V58.796H162.717Z" fill="white"/>
</svg>
