<svg width="24" height="24" viewBox="0 0 24 24" fill="none" xmlns="http://www.w3.org/2000/svg">
<g clip-path="url(#clip0_1261_4588)">
<path d="M20.1348 9.56452V10.3361H18.4765V14.3953H17.6473V10.3361H15.9545V9.56452H20.1348ZM20.3212 13.9351C20.3797 13.9351 20.4307 13.9561 20.474 13.9982C20.5179 14.0403 20.5397 14.0907 20.5403 14.1494C20.5402 14.1879 20.5295 14.2256 20.5094 14.2584C20.4896 14.2908 20.462 14.3177 20.4291 14.3365C20.3965 14.356 20.3592 14.3662 20.3212 14.3658C20.2605 14.3658 20.2088 14.3448 20.1656 14.3027C20.1224 14.2606 20.1009 14.2097 20.1015 14.1494C20.101 14.0907 20.1223 14.0403 20.1656 13.9982C20.2088 13.9561 20.2605 13.9351 20.3212 13.9351ZM3.88669 14.3953L0.829219 10.5951V14.3933H0V9.5625H1.03645L4.89923 14.3592L4.89928 10.3361L4.89895 9.56452H9.07927V10.3361H5.72845V11.5773H8.4232V12.3489H5.72845V13.6237H9.07931V14.3953H3.88669ZM11.7368 12.3416L12.2802 13.0172L11.1667 14.401H10.0785L11.7368 12.3416ZM11.1667 9.56653L12.5697 11.3089L13.9682 9.57187L15.0534 9.57023L13.113 11.9836L15.0565 14.3973H13.9682L10.0816 9.56653H11.1667ZM21.7365 12.3307H22.1039V13.7464C22.1033 13.8765 22.0752 13.9877 22.0202 14.0813C21.9645 14.1748 21.8875 14.2462 21.7887 14.2966C21.6904 14.3464 21.5752 14.3719 21.4443 14.3719C21.3246 14.3719 21.2174 14.3504 21.1218 14.3083C21.0263 14.2662 20.9505 14.2031 20.8949 14.12C20.8386 14.037 20.8111 13.9335 20.8111 13.8095H21.1792C21.1797 13.8637 21.192 13.9107 21.2156 13.9501C21.2388 13.989 21.2728 14.0203 21.3134 14.0403C21.3555 14.0614 21.4038 14.0719 21.4583 14.0719C21.5174 14.0719 21.5679 14.0597 21.6089 14.0347C21.6499 14.0104 21.6814 13.9738 21.7033 13.9252C21.7246 13.877 21.7359 13.8172 21.7365 13.7463V12.3307ZM23.6157 12.8843C23.6068 12.7986 23.5674 12.7315 23.4989 12.684C23.4297 12.6358 23.3404 12.612 23.2308 12.612C23.154 12.612 23.0876 12.6236 23.0325 12.6463C22.9775 12.6696 22.9348 12.7005 22.9056 12.7399C22.8764 12.7792 22.8618 12.824 22.8606 12.8744C22.8606 12.9165 22.8707 12.953 22.8904 12.9834C22.9107 13.0154 22.9382 13.0421 22.9707 13.0615C23.006 13.0837 23.0437 13.1017 23.0831 13.1152C23.1247 13.1296 23.1663 13.1418 23.2078 13.1518L23.3994 13.1988C23.4764 13.2165 23.5511 13.2403 23.6225 13.2708C23.6938 13.3007 23.7584 13.3389 23.8151 13.3848C23.8719 13.4308 23.9169 13.4861 23.95 13.5509C23.9831 13.6157 24 13.6915 24 13.779C24 13.8969 23.9697 14.0004 23.9084 14.0901C23.8472 14.1793 23.759 14.249 23.6432 14.2994C23.5281 14.3492 23.3887 14.3747 23.2247 14.3747C23.0662 14.3747 22.9281 14.3503 22.8117 14.3016C22.6949 14.2535 22.6039 14.1825 22.5381 14.0895C22.4723 13.9965 22.437 13.8831 22.4319 13.7497H22.7961C22.8011 13.8194 22.8236 13.8775 22.8618 13.9246C22.9005 13.9711 22.9511 14.0054 23.0129 14.0287C23.0752 14.0514 23.1449 14.063 23.2219 14.063C23.3022 14.063 23.373 14.0508 23.4342 14.027C23.4949 14.0032 23.5426 13.97 23.577 13.9268C23.6118 13.8841 23.6292 13.8338 23.6298 13.7762C23.6292 13.7236 23.6134 13.6799 23.5831 13.6455C23.5522 13.6112 23.5095 13.5825 23.455 13.5592C23.4 13.536 23.3359 13.5149 23.2629 13.4967L23.0303 13.438C22.8623 13.3953 22.7292 13.3306 22.632 13.2436C22.5342 13.1567 22.4859 13.0416 22.4859 12.8971C22.4859 12.7786 22.5185 12.6745 22.5842 12.5854C22.6494 12.4963 22.7387 12.4271 22.8517 12.3778C22.9651 12.328 23.0933 12.3036 23.2359 12.3036C23.3809 12.3036 23.5078 12.328 23.6174 12.3778C23.7269 12.4271 23.8129 12.4957 23.8752 12.5832C23.9376 12.6707 23.9702 12.7709 23.9719 12.8843H23.6157Z" fill="white"/>
</g>
<defs>
<clipPath id="clip0_1261_4588">
<rect width="24" height="4.875" fill="white" transform="translate(0 9.5625)"/>
</clipPath>
</defs>
</svg>
