<svg width="598" height="67" viewBox="0 0 598 67" fill="none" xmlns="http://www.w3.org/2000/svg">
<rect x="0.835196" y="0.835196" width="596.33" height="65.1452" rx="25.8911" fill="white"/>
<rect x="0.835196" y="0.835196" width="596.33" height="65.1452" rx="25.8911" stroke="url(#paint0_linear_227_6519)" stroke-width="1.67039"/>
<circle cx="160.318" cy="33.4076" r="12.5279" stroke="url(#paint1_linear_227_6519)" stroke-width="1.67039"/>
<path fill-rule="evenodd" clip-rule="evenodd" d="M160.318 25.9834C160.639 25.9834 160.923 26.1892 161.023 26.4938L162.443 30.8094L162.443 30.8094C162.479 30.9198 162.541 31.0202 162.623 31.1024C162.705 31.1846 162.806 31.2463 162.916 31.2827L162.916 31.2827L167.232 32.7021C167.536 32.8023 167.742 33.0867 167.742 33.4074C167.742 33.728 167.536 34.0124 167.232 34.1126L162.916 35.532L162.916 35.532C162.806 35.5684 162.705 35.6301 162.623 35.7123C162.541 35.7945 162.479 35.8949 162.443 36.0053L162.443 36.0053L161.023 40.3209C160.923 40.6255 160.639 40.8313 160.318 40.8313C159.997 40.8313 159.713 40.6255 159.613 40.3209L158.193 36.0053L158.193 36.0053C158.157 35.8949 158.095 35.7945 158.013 35.7123C157.931 35.6301 157.83 35.5684 157.72 35.532L157.72 35.532L153.404 34.1126C153.1 34.0124 152.894 33.728 152.894 33.4074C152.894 33.0867 153.1 32.8023 153.404 32.7021L157.72 31.2827L157.72 31.2827C157.83 31.2463 157.931 31.1846 158.013 31.1024C158.095 31.0202 158.157 30.9198 158.193 30.8094L158.193 30.8094L159.613 26.4938C159.713 26.1892 159.997 25.9834 160.318 25.9834ZM159.604 31.2733C159.604 31.2733 159.604 31.2733 159.604 31.2733C159.495 31.6046 159.31 31.9057 159.063 32.1523C158.816 32.3989 158.515 32.5842 158.184 32.6931C158.184 32.6931 158.184 32.6931 158.184 32.6931L156.012 33.4074L158.184 34.1216C158.184 34.1216 158.184 34.1216 158.184 34.1216C158.515 34.2306 158.816 34.4158 159.063 34.6624C159.31 34.909 159.495 35.2101 159.604 35.5414C159.604 35.5414 159.604 35.5414 159.604 35.5414L160.318 37.7129L161.032 35.5414C161.032 35.5414 161.032 35.5414 161.032 35.5414C161.141 35.2101 161.326 34.909 161.573 34.6624C161.82 34.4158 162.121 34.2306 162.452 34.1216C162.452 34.1216 162.452 34.1216 162.452 34.1216L164.624 33.4074L162.452 32.6931C162.452 32.6931 162.452 32.6931 162.452 32.6931C162.121 32.5842 161.82 32.3989 161.573 32.1523C161.326 31.9057 161.141 31.6046 161.032 31.2733C161.032 31.2733 161.032 31.2733 161.032 31.2733L160.318 29.1018L159.604 31.2733Z" fill="#472E75"/>
<path fill-rule="evenodd" clip-rule="evenodd" d="M155.121 25.9834C155.531 25.9834 155.864 26.3158 155.864 26.7258V29.6954C155.864 30.1054 155.531 30.4378 155.121 30.4378C154.711 30.4378 154.379 30.1054 154.379 29.6954V26.7258C154.379 26.3158 154.711 25.9834 155.121 25.9834Z" fill="#472E75"/>
<path fill-rule="evenodd" clip-rule="evenodd" d="M165.515 36.377C165.925 36.377 166.257 36.7093 166.257 37.1193V40.0889C166.257 40.4989 165.925 40.8313 165.515 40.8313C165.105 40.8313 164.772 40.4989 164.772 40.0889V37.1193C164.772 36.7093 165.105 36.377 165.515 36.377Z" fill="#472E75"/>
<path fill-rule="evenodd" clip-rule="evenodd" d="M152.894 28.2107C152.894 27.8006 153.226 27.4683 153.636 27.4683H156.606C157.016 27.4683 157.348 27.8006 157.348 28.2107C157.348 28.6207 157.016 28.9531 156.606 28.9531H153.636C153.226 28.9531 152.894 28.6207 152.894 28.2107Z" fill="#472E75"/>
<path fill-rule="evenodd" clip-rule="evenodd" d="M163.288 38.6042C163.288 38.1942 163.62 37.8618 164.03 37.8618H167C167.41 37.8618 167.742 38.1942 167.742 38.6042C167.742 39.0142 167.41 39.3466 167 39.3466H164.03C163.62 39.3466 163.288 39.0142 163.288 38.6042Z" fill="#472E75"/>
<path d="M189.802 41.9077H187.643L193.888 24.9001H196.014L202.259 41.9077H200.099L195.017 27.5908H194.884L189.802 41.9077ZM190.599 35.2641H199.302V37.0911H190.599V35.2641ZM206.967 24.9001V41.9077H204.908V24.9001H206.967ZM231.36 30.215H229.3C229.178 29.6226 228.965 29.1022 228.661 28.6537C228.362 28.2053 227.996 27.8288 227.564 27.5243C227.138 27.2143 226.665 26.9818 226.144 26.8267C225.624 26.6717 225.081 26.5942 224.517 26.5942C223.487 26.5942 222.554 26.8544 221.718 27.3748C220.888 27.8953 220.226 28.662 219.733 29.6752C219.246 30.6883 219.002 31.9312 219.002 33.4039C219.002 34.8766 219.246 36.1195 219.733 37.1326C220.226 38.1458 220.888 38.9126 221.718 39.433C222.554 39.9534 223.487 40.2136 224.517 40.2136C225.081 40.2136 225.624 40.1361 226.144 39.9811C226.665 39.8261 227.138 39.5963 227.564 39.2918C227.996 38.9818 228.362 38.6025 228.661 38.1541C228.965 37.7001 229.178 37.1797 229.3 36.5928H231.36C231.205 37.462 230.922 38.2399 230.513 38.9264C230.103 39.6129 229.594 40.197 228.985 40.6786C228.376 41.1548 227.692 41.5174 226.933 41.7665C226.18 42.0157 225.375 42.1402 224.517 42.1402C223.066 42.1402 221.776 41.7859 220.647 41.0773C219.517 40.3686 218.629 39.361 217.981 38.0544C217.333 36.7479 217.009 35.1977 217.009 33.4039C217.009 31.6101 217.333 30.06 217.981 28.7534C218.629 27.4468 219.517 26.4392 220.647 25.7305C221.776 25.0219 223.066 24.6676 224.517 24.6676C225.375 24.6676 226.18 24.7921 226.933 25.0413C227.692 25.2904 228.376 25.6558 228.985 26.1375C229.594 26.6136 230.103 27.1949 230.513 27.8814C230.922 28.5624 231.205 29.3402 231.36 30.215ZM236.382 34.2344V41.9077H234.422V24.9001H236.382V31.1451H236.548C236.847 30.4863 237.295 29.9631 237.893 29.5755C238.497 29.1825 239.299 28.9859 240.301 28.9859C241.171 28.9859 241.932 29.1603 242.585 29.5091C243.238 29.8523 243.745 30.3811 244.105 31.0953C244.47 31.8039 244.653 32.7063 244.653 33.8025V41.9077H242.693V33.9354C242.693 32.9222 242.43 32.1389 241.904 31.5852C241.384 31.026 240.661 30.7465 239.737 30.7465C239.095 30.7465 238.519 30.8821 238.009 31.1534C237.506 31.4247 237.107 31.8205 236.814 32.3409C236.526 32.8613 236.382 33.4925 236.382 34.2344ZM251.992 42.2067C251.184 42.2067 250.45 42.0544 249.791 41.7499C249.133 41.4399 248.609 40.9942 248.222 40.4129C247.834 39.8261 247.641 39.1174 247.641 38.287C247.641 37.5562 247.785 36.9638 248.072 36.5098C248.36 36.0503 248.745 35.6904 249.227 35.4302C249.708 35.17 250.24 34.9762 250.821 34.8489C251.408 34.716 251.998 34.6108 252.59 34.5333C253.365 34.4337 253.994 34.3589 254.475 34.3091C254.962 34.2537 255.317 34.1624 255.538 34.035C255.765 33.9077 255.879 33.6863 255.879 33.3707V33.3043C255.879 32.4849 255.654 31.8482 255.206 31.3942C254.763 30.9402 254.09 30.7132 253.188 30.7132C252.252 30.7132 251.519 30.9181 250.987 31.3278C250.456 31.7375 250.082 32.1748 249.866 32.6399L248.006 31.9755C248.338 31.2004 248.781 30.597 249.335 30.1651C249.894 29.7278 250.503 29.4233 251.162 29.2517C251.826 29.0745 252.479 28.9859 253.122 28.9859C253.531 28.9859 254.002 29.0357 254.533 29.1354C255.07 29.2295 255.588 29.426 256.086 29.725C256.59 30.024 257.008 30.4752 257.34 31.0786C257.672 31.6821 257.838 32.4904 257.838 33.5036V41.9077H255.879V40.1804H255.779C255.646 40.4572 255.425 40.7534 255.115 41.069C254.805 41.3845 254.392 41.653 253.877 41.8745C253.362 42.096 252.734 42.2067 251.992 42.2067ZM252.291 40.4461C253.066 40.4461 253.719 40.2939 254.251 39.9894C254.788 39.6849 255.192 39.2918 255.463 38.8101C255.74 38.3285 255.879 37.8219 255.879 37.2904V35.4966C255.796 35.5963 255.613 35.6876 255.331 35.7707C255.054 35.8482 254.733 35.9174 254.367 35.9783C254.007 36.0337 253.656 36.0835 253.313 36.1278C252.975 36.1665 252.701 36.1998 252.49 36.2274C251.981 36.2939 251.505 36.4018 251.062 36.5513C250.625 36.6953 250.27 36.9139 249.999 37.2074C249.733 37.4953 249.6 37.8883 249.6 38.3866C249.6 39.0676 249.852 39.5825 250.356 39.9312C250.865 40.2745 251.51 40.4461 252.291 40.4461ZM266.963 29.152V30.8129H260.353V29.152H266.963ZM262.279 26.0959H264.239V38.2537C264.239 38.8074 264.319 39.2226 264.48 39.4994C264.646 39.7707 264.856 39.9534 265.111 40.0475C265.371 40.1361 265.645 40.1804 265.933 40.1804C266.149 40.1804 266.326 40.1693 266.465 40.1472C266.603 40.1195 266.714 40.0973 266.797 40.0807L267.196 41.8413C267.063 41.8911 266.877 41.9409 266.639 41.9908C266.401 42.0461 266.099 42.0738 265.734 42.0738C265.18 42.0738 264.638 41.9548 264.106 41.7167C263.58 41.4786 263.143 41.116 262.794 40.6288C262.451 40.1416 262.279 39.5271 262.279 38.7852V26.0959ZM276.754 41.9077V24.9001H282.7C283.885 24.9001 284.862 25.1049 285.632 25.5146C286.401 25.9188 286.974 26.4641 287.351 27.1506C287.727 27.8316 287.915 28.5873 287.915 29.4177C287.915 30.1485 287.785 30.752 287.525 31.2281C287.27 31.7042 286.933 32.0807 286.512 32.3575C286.097 32.6344 285.645 32.8392 285.158 32.9721V33.1382C285.679 33.1714 286.202 33.3541 286.728 33.6863C287.254 34.0184 287.694 34.4946 288.048 35.1146C288.403 35.7347 288.58 36.4932 288.58 37.3901C288.58 38.2427 288.386 39.0094 287.998 39.6904C287.611 40.3714 286.999 40.9112 286.163 41.3098C285.327 41.7084 284.239 41.9077 282.899 41.9077H276.754ZM278.814 40.0807H282.899C284.245 40.0807 285.2 39.8205 285.764 39.3001C286.335 38.7741 286.62 38.1375 286.62 37.3901C286.62 36.8143 286.473 36.2828 286.18 35.7956C285.886 35.3029 285.468 34.9098 284.926 34.6164C284.383 34.3174 283.741 34.1679 282.999 34.1679H278.814V40.0807ZM278.814 32.3741H282.634C283.254 32.3741 283.813 32.2523 284.311 32.0087C284.815 31.7651 285.214 31.4219 285.507 30.979C285.806 30.5361 285.955 30.0157 285.955 29.4177C285.955 28.6703 285.695 28.0364 285.175 27.516C284.654 26.9901 283.83 26.7271 282.7 26.7271H278.814V32.3741ZM296.88 42.1735C295.728 42.1735 294.718 41.8994 293.849 41.3513C292.985 40.8032 292.31 40.0364 291.823 39.051C291.341 38.0655 291.1 36.9139 291.1 35.5963C291.1 34.2676 291.341 33.1077 291.823 32.1167C292.31 31.1257 292.985 30.3562 293.849 29.8081C294.718 29.26 295.728 28.9859 296.88 28.9859C298.032 28.9859 299.039 29.26 299.903 29.8081C300.772 30.3562 301.448 31.1257 301.929 32.1167C302.416 33.1077 302.66 34.2676 302.66 35.5963C302.66 36.9139 302.416 38.0655 301.929 39.051C301.448 40.0364 300.772 40.8032 299.903 41.3513C299.039 41.8994 298.032 42.1735 296.88 42.1735ZM296.88 40.4129C297.755 40.4129 298.474 40.1887 299.039 39.7402C299.604 39.2918 300.022 38.7022 300.293 37.9714C300.564 37.2406 300.7 36.4489 300.7 35.5963C300.7 34.7437 300.564 33.9492 300.293 33.2129C300.022 32.4766 299.604 31.8814 299.039 31.4274C298.474 30.9735 297.755 30.7465 296.88 30.7465C296.005 30.7465 295.286 30.9735 294.721 31.4274C294.156 31.8814 293.738 32.4766 293.467 33.2129C293.196 33.9492 293.06 34.7437 293.06 35.5963C293.06 36.4489 293.196 37.2406 293.467 37.9714C293.738 38.7022 294.156 39.2918 294.721 39.7402C295.286 40.1887 296.005 40.4129 296.88 40.4129ZM311.199 29.152V30.8129H304.589V29.152H311.199ZM306.515 26.0959H308.475V38.2537C308.475 38.8074 308.555 39.2226 308.716 39.4994C308.882 39.7707 309.092 39.9534 309.347 40.0475C309.607 40.1361 309.881 40.1804 310.169 40.1804C310.385 40.1804 310.562 40.1693 310.701 40.1472C310.839 40.1195 310.95 40.0973 311.033 40.0807L311.432 41.8413C311.299 41.8911 311.113 41.9409 310.875 41.9908C310.637 42.0461 310.335 42.0738 309.97 42.0738C309.416 42.0738 308.874 41.9548 308.342 41.7167C307.816 41.4786 307.379 41.116 307.03 40.6288C306.687 40.1416 306.515 39.5271 306.515 38.7852V26.0959ZM320.724 41.9077V29.152H322.684V41.9077H320.724ZM321.721 27.026C321.339 27.026 321.009 26.8959 320.733 26.6357C320.461 26.3755 320.326 26.0627 320.326 25.6973C320.326 25.3319 320.461 25.0191 320.733 24.7589C321.009 24.4987 321.339 24.3686 321.721 24.3686C322.103 24.3686 322.43 24.4987 322.701 24.7589C322.978 25.0191 323.116 25.3319 323.116 25.6973C323.116 26.0627 322.978 26.3755 322.701 26.6357C322.43 26.8959 322.103 27.026 321.721 27.026ZM328.234 34.2344V41.9077H326.274V29.152H328.167V31.1451H328.333C328.632 30.4973 329.086 29.9769 329.695 29.5838C330.304 29.1852 331.09 28.9859 332.054 28.9859C332.917 28.9859 333.673 29.1631 334.321 29.5174C334.969 29.8662 335.472 30.3977 335.832 31.1119C336.192 31.8205 336.372 32.7174 336.372 33.8025V41.9077H334.412V33.9354C334.412 32.9333 334.152 32.1527 333.632 31.5935C333.111 31.0288 332.397 30.7465 331.489 30.7465C330.863 30.7465 330.304 30.8821 329.812 31.1534C329.324 31.4247 328.94 31.8205 328.657 32.3409C328.375 32.8613 328.234 33.4925 328.234 34.2344ZM351.713 42.1735C350.561 42.1735 349.551 41.8994 348.681 41.3513C347.818 40.8032 347.142 40.0364 346.655 39.051C346.173 38.0655 345.933 36.9139 345.933 35.5963C345.933 34.2676 346.173 33.1077 346.655 32.1167C347.142 31.1257 347.818 30.3562 348.681 29.8081C349.551 29.26 350.561 28.9859 351.713 28.9859C352.864 28.9859 353.872 29.26 354.735 29.8081C355.605 30.3562 356.28 31.1257 356.762 32.1167C357.249 33.1077 357.493 34.2676 357.493 35.5963C357.493 36.9139 357.249 38.0655 356.762 39.051C356.28 40.0364 355.605 40.8032 354.735 41.3513C353.872 41.8994 352.864 42.1735 351.713 42.1735ZM351.713 40.4129C352.587 40.4129 353.307 40.1887 353.872 39.7402C354.436 39.2918 354.854 38.7022 355.126 37.9714C355.397 37.2406 355.533 36.4489 355.533 35.5963C355.533 34.7437 355.397 33.9492 355.126 33.2129C354.854 32.4766 354.436 31.8814 353.872 31.4274C353.307 30.9735 352.587 30.7465 351.713 30.7465C350.838 30.7465 350.118 30.9735 349.553 31.4274C348.989 31.8814 348.571 32.4766 348.299 33.2129C348.028 33.9492 347.893 34.7437 347.893 35.5963C347.893 36.4489 348.028 37.2406 348.299 37.9714C348.571 38.7022 348.989 39.2918 349.553 39.7402C350.118 40.1887 350.838 40.4129 351.713 40.4129ZM360.484 46.6911V29.152H362.378V31.1783H362.61C362.754 30.9568 362.953 30.6745 363.208 30.3312C363.468 29.9825 363.839 29.6724 364.321 29.4011C364.808 29.1243 365.467 28.9859 366.297 28.9859C367.371 28.9859 368.318 29.2544 369.138 29.7914C369.957 30.3285 370.596 31.0897 371.056 32.0752C371.515 33.0607 371.745 34.2233 371.745 35.5631C371.745 36.9139 371.515 38.0849 371.056 39.0759C370.596 40.0613 369.96 40.8254 369.146 41.3679C368.332 41.9049 367.394 42.1735 366.331 42.1735C365.511 42.1735 364.855 42.0378 364.362 41.7665C363.87 41.4897 363.49 41.1769 363.225 40.8281C362.959 40.4738 362.754 40.1804 362.61 39.9479H362.444V46.6911H360.484ZM362.411 35.5299C362.411 36.4932 362.552 37.343 362.834 38.0793C363.117 38.8101 363.529 39.3831 364.072 39.7984C364.614 40.2081 365.279 40.4129 366.065 40.4129C366.884 40.4129 367.568 40.197 368.116 39.7652C368.67 39.3278 369.085 38.7409 369.362 38.0046C369.644 37.2627 369.785 36.4378 369.785 35.5299C369.785 34.633 369.647 33.8247 369.37 33.1049C369.099 32.3797 368.686 31.8067 368.133 31.3859C367.585 30.9596 366.895 30.7465 366.065 30.7465C365.268 30.7465 364.598 30.9485 364.055 31.3527C363.513 31.7513 363.103 32.3105 362.826 33.0302C362.549 33.7444 362.411 34.5776 362.411 35.5299ZM380.083 42.1735C378.854 42.1735 377.794 41.9022 376.902 41.3596C376.016 40.8115 375.333 40.0475 374.851 39.0676C374.375 38.0821 374.137 36.9361 374.137 35.6295C374.137 34.3229 374.375 33.1714 374.851 32.1748C375.333 31.1728 376.003 30.3921 376.861 29.833C377.724 29.2683 378.732 28.9859 379.884 28.9859C380.548 28.9859 381.204 29.0966 381.852 29.3181C382.499 29.5395 383.089 29.8994 383.621 30.3977C384.152 30.8904 384.576 31.5437 384.891 32.3575C385.207 33.1714 385.364 34.1735 385.364 35.3638V36.1942H375.532V34.5001H383.371C383.371 33.7804 383.227 33.1382 382.94 32.5735C382.657 32.0087 382.253 31.5631 381.727 31.2364C381.207 30.9098 380.592 30.7465 379.884 30.7465C379.103 30.7465 378.427 30.9402 377.857 31.3278C377.293 31.7098 376.858 32.2081 376.553 32.8226C376.249 33.4371 376.097 34.0959 376.097 34.7991V35.9285C376.097 36.8918 376.263 37.7084 376.595 38.3783C376.933 39.0427 377.4 39.5492 377.998 39.898C378.596 40.2413 379.291 40.4129 380.083 40.4129C380.598 40.4129 381.063 40.3409 381.478 40.197C381.899 40.0475 382.261 39.8261 382.566 39.5326C382.87 39.2337 383.106 38.8627 383.272 38.4198L385.165 38.9513C384.966 39.5935 384.631 40.1582 384.16 40.6454C383.69 41.1271 383.108 41.5036 382.416 41.7748C381.724 42.0406 380.947 42.1735 380.083 42.1735ZM388.346 41.9077V29.152H390.239V31.0786H390.372C390.605 30.4475 391.025 29.9354 391.634 29.5423C392.243 29.1492 392.93 28.9527 393.694 28.9527C393.838 28.9527 394.018 28.9555 394.234 28.961C394.45 28.9665 394.613 28.9748 394.724 28.9859V30.979C394.657 30.9624 394.505 30.9375 394.267 30.9042C394.034 30.8655 393.788 30.8461 393.528 30.8461C392.908 30.8461 392.354 30.9762 391.867 31.2364C391.385 31.4911 391.003 31.8454 390.721 32.2994C390.444 32.7478 390.306 33.26 390.306 33.8357V41.9077H388.346ZM400.8 42.2067C399.992 42.2067 399.259 42.0544 398.6 41.7499C397.941 41.4399 397.418 40.9942 397.03 40.4129C396.643 39.8261 396.449 39.1174 396.449 38.287C396.449 37.5562 396.593 36.9638 396.881 36.5098C397.169 36.0503 397.553 35.6904 398.035 35.4302C398.517 35.17 399.048 34.9762 399.63 34.8489C400.216 34.716 400.806 34.6108 401.398 34.5333C402.174 34.4337 402.802 34.3589 403.284 34.3091C403.771 34.2537 404.125 34.1624 404.347 34.035C404.574 33.9077 404.687 33.6863 404.687 33.3707V33.3043C404.687 32.4849 404.463 31.8482 404.014 31.3942C403.571 30.9402 402.899 30.7132 401.996 30.7132C401.061 30.7132 400.327 30.9181 399.796 31.3278C399.264 31.7375 398.89 32.1748 398.675 32.6399L396.814 31.9755C397.147 31.2004 397.589 30.597 398.143 30.1651C398.702 29.7278 399.311 29.4233 399.97 29.2517C400.634 29.0745 401.288 28.9859 401.93 28.9859C402.34 28.9859 402.81 29.0357 403.342 29.1354C403.879 29.2295 404.396 29.426 404.895 29.725C405.398 30.024 405.816 30.4752 406.149 31.0786C406.481 31.6821 406.647 32.4904 406.647 33.5036V41.9077H404.687V40.1804H404.587C404.454 40.4572 404.233 40.7534 403.923 41.069C403.613 41.3845 403.2 41.653 402.686 41.8745C402.171 42.096 401.542 42.2067 400.8 42.2067ZM401.099 40.4461C401.875 40.4461 402.528 40.2939 403.059 39.9894C403.596 39.6849 404 39.2918 404.272 38.8101C404.549 38.3285 404.687 37.8219 404.687 37.2904V35.4966C404.604 35.5963 404.421 35.6876 404.139 35.7707C403.862 35.8482 403.541 35.9174 403.176 35.9783C402.816 36.0337 402.464 36.0835 402.121 36.1278C401.783 36.1665 401.509 36.1998 401.299 36.2274C400.789 36.2939 400.313 36.4018 399.87 36.5513C399.433 36.6953 399.079 36.9139 398.807 37.2074C398.542 37.4953 398.409 37.8883 398.409 38.3866C398.409 39.0676 398.661 39.5825 399.165 39.9312C399.674 40.2745 400.319 40.4461 401.099 40.4461ZM415.771 29.152V30.8129H409.161V29.152H415.771ZM411.088 26.0959H413.048V38.2537C413.048 38.8074 413.128 39.2226 413.288 39.4994C413.454 39.7707 413.665 39.9534 413.92 40.0475C414.18 40.1361 414.454 40.1804 414.742 40.1804C414.958 40.1804 415.135 40.1693 415.273 40.1472C415.412 40.1195 415.522 40.0973 415.605 40.0807L416.004 41.8413C415.871 41.8911 415.686 41.9409 415.448 41.9908C415.209 42.0461 414.908 42.0738 414.542 42.0738C413.989 42.0738 413.446 41.9548 412.915 41.7167C412.389 41.4786 411.951 41.116 411.603 40.6288C411.259 40.1416 411.088 39.5271 411.088 38.7852V26.0959ZM418.72 41.9077V29.152H420.679V41.9077H418.72ZM419.716 27.026C419.334 27.026 419.005 26.8959 418.728 26.6357C418.457 26.3755 418.321 26.0627 418.321 25.6973C418.321 25.3319 418.457 25.0191 418.728 24.7589C419.005 24.4987 419.334 24.3686 419.716 24.3686C420.098 24.3686 420.425 24.4987 420.696 24.7589C420.973 25.0191 421.111 25.3319 421.111 25.6973C421.111 26.0627 420.973 26.3755 420.696 26.6357C420.425 26.8959 420.098 27.026 419.716 27.026ZM429.451 42.1735C428.299 42.1735 427.289 41.8994 426.42 41.3513C425.556 40.8032 424.881 40.0364 424.394 39.051C423.912 38.0655 423.671 36.9139 423.671 35.5963C423.671 34.2676 423.912 33.1077 424.394 32.1167C424.881 31.1257 425.556 30.3562 426.42 29.8081C427.289 29.26 428.299 28.9859 429.451 28.9859C430.603 28.9859 431.61 29.26 432.474 29.8081C433.343 30.3562 434.018 31.1257 434.5 32.1167C434.987 33.1077 435.231 34.2676 435.231 35.5963C435.231 36.9139 434.987 38.0655 434.5 39.051C434.018 40.0364 433.343 40.8032 432.474 41.3513C431.61 41.8994 430.603 42.1735 429.451 42.1735ZM429.451 40.4129C430.326 40.4129 431.045 40.1887 431.61 39.7402C432.175 39.2918 432.593 38.7022 432.864 37.9714C433.135 37.2406 433.271 36.4489 433.271 35.5963C433.271 34.7437 433.135 33.9492 432.864 33.2129C432.593 32.4766 432.175 31.8814 431.61 31.4274C431.045 30.9735 430.326 30.7465 429.451 30.7465C428.576 30.7465 427.857 30.9735 427.292 31.4274C426.727 31.8814 426.309 32.4766 426.038 33.2129C425.767 33.9492 425.631 34.7437 425.631 35.5963C425.631 36.4489 425.767 37.2406 426.038 37.9714C426.309 38.7022 426.727 39.2918 427.292 39.7402C427.857 40.1887 428.576 40.4129 429.451 40.4129ZM440.183 34.2344V41.9077H438.223V29.152H440.116V31.1451H440.282C440.581 30.4973 441.035 29.9769 441.644 29.5838C442.253 29.1852 443.039 28.9859 444.003 28.9859C444.866 28.9859 445.622 29.1631 446.27 29.5174C446.917 29.8662 447.421 30.3977 447.781 31.1119C448.141 31.8205 448.321 32.7174 448.321 33.8025V41.9077H446.361V33.9354C446.361 32.9333 446.101 32.1527 445.58 31.5935C445.06 31.0288 444.346 30.7465 443.438 30.7465C442.812 30.7465 442.253 30.8821 441.76 31.1534C441.273 31.4247 440.888 31.8205 440.606 32.3409C440.324 32.8613 440.183 33.4925 440.183 34.2344Z" fill="#1D1D1D"/>
<defs>
<linearGradient id="paint0_linear_227_6519" x1="-37.375" y1="9.74395" x2="-31.387" y2="91.1254" gradientUnits="userSpaceOnUse">
<stop stop-color="#FF3669"/>
<stop offset="0.3" stop-color="#FFCA73"/>
<stop offset="0.69" stop-color="#E199FE"/>
<stop offset="1" stop-color="#96C6FF"/>
</linearGradient>
<linearGradient id="paint1_linear_227_6519" x1="145.285" y1="23.942" x2="160.318" y2="46.7707" gradientUnits="userSpaceOnUse">
<stop stop-color="#FF3669"/>
<stop offset="0.3" stop-color="#FFCA73"/>
<stop offset="0.69" stop-color="#E199FE"/>
<stop offset="1" stop-color="#96C6FF"/>
</linearGradient>
</defs>
</svg>
