<svg width="570" height="100" viewBox="0 0 570 100" fill="none" xmlns="http://www.w3.org/2000/svg">
<rect width="569.966" height="99.229" rx="13.8266" fill="#FFF8F2"/>
<circle cx="52.6122" cy="49.6147" r="28.4983" fill="white" stroke="#EEEEEE" stroke-width="1.46145"/>
<path fill-rule="evenodd" clip-rule="evenodd" d="M42.3821 39.3848C41.5749 39.3848 40.9206 40.0391 40.9206 40.8463V61.3066C40.9206 62.1137 41.5749 62.768 42.3821 62.768H62.8424C63.6495 62.768 64.3038 62.1137 64.3038 61.3066V40.8463C64.3038 40.0391 63.6495 39.3848 62.8424 39.3848H42.3821ZM37.9977 40.8463C37.9977 38.4249 39.9606 36.4619 42.3821 36.4619H62.8424C65.2638 36.4619 67.2267 38.4249 67.2267 40.8463V61.3066C67.2267 63.728 65.2638 65.6909 62.8424 65.6909H42.3821C39.9606 65.6909 37.9977 63.728 37.9977 61.3066V40.8463Z" fill="#F5891D"/>
<path fill-rule="evenodd" clip-rule="evenodd" d="M58.458 33.5391C59.2651 33.5391 59.9195 34.1934 59.9195 35.0005V40.8463C59.9195 41.6535 59.2651 42.3078 58.458 42.3078C57.6509 42.3078 56.9966 41.6535 56.9966 40.8463V35.0005C56.9966 34.1934 57.6509 33.5391 58.458 33.5391Z" fill="#F5891D"/>
<path fill-rule="evenodd" clip-rule="evenodd" d="M46.7664 33.5391C47.5735 33.5391 48.2278 34.1934 48.2278 35.0005V40.8463C48.2278 41.6535 47.5735 42.3078 46.7664 42.3078C45.9593 42.3078 45.3049 41.6535 45.3049 40.8463V35.0005C45.3049 34.1934 45.9593 33.5391 46.7664 33.5391Z" fill="#F5891D"/>
<path fill-rule="evenodd" clip-rule="evenodd" d="M37.9977 46.6919C37.9977 45.8848 38.652 45.2305 39.4591 45.2305H65.7653C66.5724 45.2305 67.2267 45.8848 67.2267 46.6919C67.2267 47.4991 66.5724 48.1534 65.7653 48.1534H39.4591C38.652 48.1534 37.9977 47.4991 37.9977 46.6919Z" fill="#F5891D"/>
<path fill-rule="evenodd" clip-rule="evenodd" d="M58.03 51.5047C58.6007 52.0754 58.6007 53.0008 58.03 53.5715L52.1842 59.4173C51.6134 59.988 50.6881 59.988 50.1173 59.4173L47.1944 56.4944C46.6237 55.9237 46.6237 54.9983 47.1944 54.4276C47.7652 53.8569 48.6905 53.8569 49.2613 54.4276L51.1507 56.3171L55.9631 51.5047C56.5339 50.934 57.4592 50.934 58.03 51.5047Z" fill="#F5891D"/>
<path d="M116.964 17.9369V30.6914H114.909L108.899 22.0037H108.793V30.6914H106.482V17.9369H108.55L114.554 26.6309H114.666V17.9369H116.964ZM123.617 30.8782C122.657 30.8782 121.829 30.679 121.132 30.2804C120.438 29.8776 119.905 29.3088 119.531 28.574C119.157 27.8349 118.971 26.9651 118.971 25.9645C118.971 24.9805 119.157 24.117 119.531 23.3738C119.909 22.6264 120.436 22.0452 121.113 21.63C121.79 21.2107 122.585 21.001 123.498 21.001C124.088 21.001 124.644 21.0965 125.167 21.2875C125.695 21.4743 126.16 21.7649 126.562 22.1594C126.969 22.5538 127.289 23.0562 127.521 23.6665C127.754 24.2727 127.87 24.9951 127.87 25.8337V26.525H120.029V25.0055H125.709C125.705 24.5737 125.612 24.1896 125.429 23.8533C125.246 23.5129 124.991 23.2451 124.663 23.0499C124.339 22.8548 123.961 22.7572 123.529 22.7572C123.069 22.7572 122.664 22.8693 122.315 23.0935C121.966 23.3136 121.694 23.6042 121.499 23.9654C121.308 24.3225 121.211 24.7148 121.206 25.1425V26.469C121.206 27.0253 121.308 27.5028 121.512 27.9014C121.715 28.2958 121.999 28.5989 122.365 28.8106C122.73 29.0182 123.158 29.122 123.648 29.122C123.976 29.122 124.273 29.0763 124.538 28.985C124.804 28.8895 125.034 28.7504 125.23 28.5677C125.425 28.3851 125.572 28.1588 125.672 27.8889L127.777 28.1256C127.644 28.6819 127.391 29.1677 127.017 29.5829C126.647 29.9939 126.174 30.3136 125.597 30.5419C125.02 30.7661 124.36 30.8782 123.617 30.8782ZM131.7 30.6914L128.997 21.1256H131.295L132.977 27.8515H133.064L134.783 21.1256H137.056L138.775 27.8142H138.868L140.525 21.1256H142.829L140.12 30.6914H137.772L135.979 24.227H135.848L134.054 30.6914H131.7ZM150.491 30.6914H148.025L152.515 17.9369H155.367L159.864 30.6914H157.398L153.991 20.5526H153.891L150.491 30.6914ZM150.572 25.6905H157.298V27.5464H150.572V25.6905ZM161.444 34.2786V21.1256H163.661V22.7074H163.792C163.908 22.4749 164.072 22.2279 164.284 21.9663C164.496 21.7006 164.782 21.4743 165.143 21.2875C165.505 21.0965 165.965 21.001 166.526 21.001C167.265 21.001 167.931 21.1899 168.525 21.5677C169.123 21.9414 169.596 22.4957 169.945 23.2305C170.298 23.9613 170.474 24.8581 170.474 25.9209C170.474 26.9714 170.302 27.864 169.957 28.5989C169.613 29.3338 169.144 29.8943 168.55 30.2804C167.956 30.6665 167.284 30.8596 166.532 30.8596C165.984 30.8596 165.529 30.7682 165.168 30.5855C164.807 30.4029 164.516 30.1828 164.296 29.9254C164.08 29.6638 163.912 29.4168 163.792 29.1843H163.698V34.2786H161.444ZM163.655 25.9085C163.655 26.5271 163.742 27.0689 163.916 27.5339C164.095 27.9989 164.35 28.3622 164.682 28.6238C165.019 28.8812 165.426 29.0099 165.903 29.0099C166.401 29.0099 166.819 28.877 167.155 28.6113C167.491 28.3415 167.744 27.974 167.915 27.509C168.089 27.0399 168.176 26.5063 168.176 25.9085C168.176 25.3148 168.091 24.7875 167.921 24.3266C167.751 23.8658 167.497 23.5046 167.161 23.243C166.825 22.9814 166.405 22.8506 165.903 22.8506C165.422 22.8506 165.013 22.9773 164.676 23.2305C164.34 23.4838 164.085 23.8388 163.91 24.2955C163.74 24.7522 163.655 25.2899 163.655 25.9085ZM172.405 34.2786V21.1256H174.622V22.7074H174.753C174.869 22.4749 175.033 22.2279 175.245 21.9663C175.457 21.7006 175.743 21.4743 176.104 21.2875C176.465 21.0965 176.926 21.001 177.487 21.001C178.226 21.001 178.892 21.1899 179.486 21.5677C180.084 21.9414 180.557 22.4957 180.906 23.2305C181.259 23.9613 181.435 24.8581 181.435 25.9209C181.435 26.9714 181.263 27.864 180.918 28.5989C180.574 29.3338 180.105 29.8943 179.511 30.2804C178.917 30.6665 178.244 30.8596 177.493 30.8596C176.945 30.8596 176.49 30.7682 176.129 30.5855C175.768 30.4029 175.477 30.1828 175.257 29.9254C175.041 29.6638 174.873 29.4168 174.753 29.1843H174.659V34.2786H172.405ZM174.616 25.9085C174.616 26.5271 174.703 27.0689 174.877 27.5339C175.056 27.9989 175.311 28.3622 175.643 28.6238C175.98 28.8812 176.387 29.0099 176.864 29.0099C177.362 29.0099 177.779 28.877 178.116 28.6113C178.452 28.3415 178.705 27.974 178.876 27.509C179.05 27.0399 179.137 26.5063 179.137 25.9085C179.137 25.3148 179.052 24.7875 178.882 24.3266C178.712 23.8658 178.458 23.5046 178.122 23.243C177.786 22.9814 177.366 22.8506 176.864 22.8506C176.382 22.8506 175.973 22.9773 175.637 23.2305C175.301 23.4838 175.045 23.8388 174.871 24.2955C174.701 24.7522 174.616 25.2899 174.616 25.9085ZM187.538 30.8782C186.604 30.8782 185.795 30.6727 185.11 30.2617C184.425 29.8507 183.893 29.2756 183.515 28.5366C183.142 27.7976 182.955 26.934 182.955 25.9458C182.955 24.9577 183.142 24.092 183.515 23.3489C183.893 22.6057 184.425 22.0286 185.11 21.6175C185.795 21.2065 186.604 21.001 187.538 21.001C188.473 21.001 189.282 21.2065 189.967 21.6175C190.652 22.0286 191.182 22.6057 191.555 23.3489C191.933 24.092 192.122 24.9577 192.122 25.9458C192.122 26.934 191.933 27.7976 191.555 28.5366C191.182 29.2756 190.652 29.8507 189.967 30.2617C189.282 30.6727 188.473 30.8782 187.538 30.8782ZM187.551 29.0722C188.057 29.0722 188.481 28.9331 188.821 28.6549C189.162 28.3726 189.415 27.9948 189.581 27.5215C189.751 27.0482 189.836 26.5209 189.836 25.9396C189.836 25.3542 189.751 24.8248 189.581 24.3515C189.415 23.8741 189.162 23.4942 188.821 23.2119C188.481 22.9295 188.057 22.7884 187.551 22.7884C187.032 22.7884 186.6 22.9295 186.255 23.2119C185.915 23.4942 185.66 23.8741 185.489 24.3515C185.323 24.8248 185.24 25.3542 185.24 25.9396C185.24 26.5209 185.323 27.0482 185.489 27.5215C185.66 27.9948 185.915 28.3726 186.255 28.6549C186.6 28.9331 187.032 29.0722 187.551 29.0722ZM194.036 30.6914V21.1256H196.29V30.6914H194.036ZM195.169 19.7679C194.812 19.7679 194.505 19.6496 194.247 19.4129C193.99 19.1721 193.861 18.8836 193.861 18.5473C193.861 18.2068 193.99 17.9182 194.247 17.6816C194.505 17.4408 194.812 17.3204 195.169 17.3204C195.53 17.3204 195.837 17.4408 196.091 17.6816C196.348 17.9182 196.477 18.2068 196.477 18.5473C196.477 18.8836 196.348 19.1721 196.091 19.4129C195.837 19.6496 195.53 19.7679 195.169 19.7679ZM200.863 25.0864V30.6914H198.608V21.1256H200.763V22.751H200.875C201.095 22.2154 201.446 21.7898 201.928 21.4743C202.413 21.1588 203.013 21.001 203.727 21.001C204.388 21.001 204.963 21.1422 205.453 21.4245C205.947 21.7068 206.329 22.1158 206.598 22.6514C206.873 23.1869 207.007 23.8367 207.003 24.6006V30.6914H204.749V24.9494C204.749 24.31 204.583 23.8097 204.251 23.4485C203.923 23.0873 203.468 22.9067 202.887 22.9067C202.492 22.9067 202.141 22.9939 201.834 23.1683C201.531 23.3385 201.292 23.5855 201.118 23.9094C200.948 24.2332 200.863 24.6256 200.863 25.0864ZM214.072 21.1256V22.8693H208.573V21.1256H214.072ZM209.93 18.8337H212.185V27.8142C212.185 28.1173 212.23 28.3498 212.322 28.5117C212.417 28.6695 212.542 28.7774 212.695 28.8355C212.849 28.8937 213.019 28.9227 213.206 28.9227C213.347 28.9227 213.476 28.9123 213.592 28.8916C213.713 28.8708 213.804 28.8521 213.866 28.8355L214.246 30.598C214.126 30.6395 213.953 30.6852 213.729 30.735C213.509 30.7848 213.239 30.8139 212.92 30.8222C212.355 30.8388 211.846 30.7537 211.394 30.5669C210.941 30.3759 210.582 30.0811 210.316 29.6825C210.055 29.2839 209.926 28.7857 209.93 28.1878V18.8337ZM215.957 30.6914V21.1256H218.112V22.751H218.224C218.423 22.203 218.754 21.7753 219.214 21.4681C219.675 21.1567 220.225 21.001 220.865 21.001C221.512 21.001 222.058 21.1588 222.503 21.4743C222.951 21.7857 223.267 22.2113 223.449 22.751H223.549C223.761 22.2196 224.118 21.7961 224.62 21.4805C225.127 21.1608 225.727 21.001 226.42 21.001C227.3 21.001 228.018 21.2792 228.575 21.8355C229.131 22.3919 229.409 23.2036 229.409 24.2706V30.6914H227.149V24.6193C227.149 24.0256 226.991 23.5917 226.675 23.3177C226.36 23.0396 225.974 22.9005 225.517 22.9005C224.973 22.9005 224.547 23.0707 224.24 23.4111C223.937 23.7474 223.786 24.1855 223.786 24.7252V30.6914H221.575V24.5259C221.575 24.0318 221.425 23.6374 221.126 23.3426C220.832 23.0479 220.445 22.9005 219.968 22.9005C219.644 22.9005 219.349 22.9835 219.084 23.1496C218.818 23.3115 218.606 23.5419 218.448 23.8409C218.291 24.1356 218.212 24.4802 218.212 24.8747V30.6914H215.957ZM235.931 30.8782C234.972 30.8782 234.144 30.679 233.446 30.2804C232.753 29.8776 232.22 29.3088 231.846 28.574C231.472 27.8349 231.285 26.9651 231.285 25.9645C231.285 24.9805 231.472 24.117 231.846 23.3738C232.224 22.6264 232.751 22.0452 233.428 21.63C234.104 21.2107 234.9 21.001 235.813 21.001C236.403 21.001 236.959 21.0965 237.482 21.2875C238.009 21.4743 238.474 21.7649 238.877 22.1594C239.284 22.5538 239.604 23.0562 239.836 23.6665C240.069 24.2727 240.185 24.9951 240.185 25.8337V26.525H232.344V25.0055H238.024C238.02 24.5737 237.926 24.1896 237.744 23.8533C237.561 23.5129 237.306 23.2451 236.978 23.0499C236.654 22.8548 236.276 22.7572 235.844 22.7572C235.383 22.7572 234.978 22.8693 234.63 23.0935C234.281 23.3136 234.009 23.6042 233.814 23.9654C233.623 24.3225 233.525 24.7148 233.521 25.1425V26.469C233.521 27.0253 233.623 27.5028 233.826 27.9014C234.03 28.2958 234.314 28.5989 234.68 28.8106C235.045 29.0182 235.473 29.122 235.962 29.122C236.29 29.122 236.587 29.0763 236.853 28.985C237.119 28.8895 237.349 28.7504 237.544 28.5677C237.739 28.3851 237.887 28.1588 237.986 27.8889L240.091 28.1256C239.959 28.6819 239.705 29.1677 239.332 29.5829C238.962 29.9939 238.489 30.3136 237.912 30.5419C237.335 30.7661 236.674 30.8782 235.931 30.8782ZM244.347 25.0864V30.6914H242.092V21.1256H244.247V22.751H244.359C244.579 22.2154 244.93 21.7898 245.412 21.4743C245.897 21.1588 246.497 21.001 247.211 21.001C247.871 21.001 248.447 21.1422 248.936 21.4245C249.43 21.7068 249.812 22.1158 250.082 22.6514C250.356 23.1869 250.491 23.8367 250.487 24.6006V30.6914H248.233V24.9494C248.233 24.31 248.067 23.8097 247.734 23.4485C247.406 23.0873 246.952 22.9067 246.371 22.9067C245.976 22.9067 245.625 22.9939 245.318 23.1683C245.015 23.3385 244.776 23.5855 244.602 23.9094C244.432 24.2332 244.347 24.6256 244.347 25.0864ZM257.556 21.1256V22.8693H252.057V21.1256H257.556ZM253.414 18.8337H255.669V27.8142C255.669 28.1173 255.714 28.3498 255.806 28.5117C255.901 28.6695 256.026 28.7774 256.179 28.8355C256.333 28.8937 256.503 28.9227 256.69 28.9227C256.831 28.9227 256.96 28.9123 257.076 28.8916C257.197 28.8708 257.288 28.8521 257.35 28.8355L257.73 30.598C257.61 30.6395 257.437 30.6852 257.213 30.735C256.993 30.7848 256.723 30.8139 256.404 30.8222C255.839 30.8388 255.33 30.7537 254.878 30.5669C254.425 30.3759 254.066 30.0811 253.8 29.6825C253.539 29.2839 253.41 28.7857 253.414 28.1878V18.8337ZM274.808 22.2403H272.479C272.413 21.8584 272.29 21.52 272.112 21.2252C271.933 20.9263 271.711 20.673 271.445 20.4654C271.179 20.2578 270.876 20.1021 270.536 19.9983C270.2 19.8904 269.836 19.8364 269.446 19.8364C268.753 19.8364 268.138 20.0108 267.603 20.3595C267.067 20.7041 266.648 21.2107 266.345 21.8791C266.042 22.5434 265.89 23.3551 265.89 24.3142C265.89 25.2899 266.042 26.1119 266.345 26.7804C266.652 27.4447 267.071 27.947 267.603 28.2875C268.138 28.6238 268.751 28.7919 269.44 28.7919C269.822 28.7919 270.179 28.7421 270.511 28.6425C270.847 28.5387 271.148 28.3871 271.414 28.1878C271.684 27.9886 271.91 27.7436 272.093 27.453C272.28 27.1623 272.408 26.8302 272.479 26.4565L274.808 26.469C274.721 27.0751 274.532 27.644 274.241 28.1754C273.955 28.7068 273.579 29.176 273.114 29.5829C272.649 29.9856 272.105 30.3011 271.483 30.5295C270.86 30.7537 270.168 30.8658 269.409 30.8658C268.288 30.8658 267.287 30.6063 266.407 30.0873C265.527 29.5683 264.833 28.8189 264.327 27.8391C263.82 26.8593 263.567 25.6843 263.567 24.3142C263.567 22.9399 263.822 21.7649 264.333 20.7893C264.844 19.8094 265.539 19.06 266.419 18.541C267.3 18.022 268.296 17.7626 269.409 17.7626C270.119 17.7626 270.779 17.8622 271.389 18.0615C271.999 18.2608 272.543 18.5535 273.021 18.9396C273.498 19.3216 273.891 19.7907 274.198 20.3471C274.509 20.8993 274.713 21.5304 274.808 22.2403ZM276.824 30.6914V21.1256H279.01V22.7199H279.11C279.284 22.1677 279.583 21.7421 280.007 21.4432C280.434 21.1401 280.922 20.9885 281.47 20.9885C281.595 20.9885 281.734 20.9948 281.888 21.0072C282.045 21.0155 282.176 21.0301 282.28 21.0508V23.1247C282.184 23.0915 282.033 23.0624 281.825 23.0375C281.622 23.0084 281.425 22.9939 281.234 22.9939C280.823 22.9939 280.453 23.0831 280.125 23.2617C279.801 23.4361 279.546 23.6789 279.359 23.9903C279.172 24.3017 279.079 24.6608 279.079 25.0677V30.6914H276.824ZM287.619 30.8782C286.66 30.8782 285.831 30.679 285.134 30.2804C284.44 29.8776 283.907 29.3088 283.533 28.574C283.16 27.8349 282.973 26.9651 282.973 25.9645C282.973 24.9805 283.16 24.117 283.533 23.3738C283.911 22.6264 284.438 22.0452 285.115 21.63C285.792 21.2107 286.587 21.001 287.5 21.001C288.09 21.001 288.646 21.0965 289.169 21.2875C289.697 21.4743 290.162 21.7649 290.564 22.1594C290.971 22.5538 291.291 23.0562 291.523 23.6665C291.756 24.2727 291.872 24.9951 291.872 25.8337V26.525H284.031V25.0055H289.711C289.707 24.5737 289.614 24.1896 289.431 23.8533C289.248 23.5129 288.993 23.2451 288.665 23.0499C288.341 22.8548 287.963 22.7572 287.531 22.7572C287.071 22.7572 286.666 22.8693 286.317 23.0935C285.968 23.3136 285.696 23.6042 285.501 23.9654C285.31 24.3225 285.213 24.7148 285.209 25.1425V26.469C285.209 27.0253 285.31 27.5028 285.514 27.9014C285.717 28.2958 286.002 28.5989 286.367 28.8106C286.732 29.0182 287.16 29.122 287.65 29.122C287.978 29.122 288.275 29.0763 288.54 28.985C288.806 28.8895 289.037 28.7504 289.232 28.5677C289.427 28.3851 289.574 28.1588 289.674 27.8889L291.779 28.1256C291.646 28.6819 291.393 29.1677 291.019 29.5829C290.65 29.9939 290.176 30.3136 289.599 30.5419C289.022 30.7661 288.362 30.8782 287.619 30.8782ZM296.532 30.8845C295.926 30.8845 295.38 30.7765 294.894 30.5606C294.413 30.3406 294.031 30.0167 293.748 29.5891C293.47 29.1615 293.331 28.6342 293.331 28.0072C293.331 27.4675 293.431 27.0212 293.63 26.6683C293.829 26.3154 294.101 26.033 294.446 25.8213C294.79 25.6095 295.179 25.4497 295.61 25.3418C296.046 25.2297 296.497 25.1487 296.962 25.0989C297.522 25.0407 297.977 24.9888 298.326 24.9432C298.675 24.8934 298.928 24.8186 299.086 24.719C299.247 24.6152 299.328 24.4553 299.328 24.2394V24.2021C299.328 23.7329 299.189 23.3696 298.911 23.1122C298.633 22.8548 298.232 22.7261 297.709 22.7261C297.157 22.7261 296.719 22.8465 296.395 23.0873C296.075 23.3281 295.86 23.6125 295.747 23.9405L293.642 23.6416C293.809 23.0603 294.083 22.5745 294.465 22.1843C294.847 21.7898 295.314 21.4951 295.866 21.2999C296.418 21.1006 297.028 21.001 297.697 21.001C298.158 21.001 298.616 21.055 299.073 21.1629C299.53 21.2709 299.947 21.4494 300.325 21.6985C300.703 21.9435 301.006 22.2777 301.234 22.7012C301.467 23.1247 301.583 23.654 301.583 24.2893V30.6914H299.416V29.3773H299.341C299.204 29.6431 299.011 29.8922 298.762 30.1247C298.517 30.353 298.207 30.5378 297.834 30.679C297.464 30.816 297.03 30.8845 296.532 30.8845ZM297.118 29.2279C297.57 29.2279 297.962 29.1386 298.295 28.9601C298.627 28.7774 298.882 28.5366 299.061 28.2377C299.243 27.9387 299.335 27.6128 299.335 27.2599V26.1327C299.264 26.1908 299.144 26.2448 298.973 26.2946C298.807 26.3444 298.621 26.388 298.413 26.4254C298.205 26.4628 298 26.496 297.796 26.525C297.593 26.5541 297.416 26.579 297.267 26.5998C296.931 26.6454 296.63 26.7202 296.364 26.824C296.098 26.9278 295.889 27.0731 295.735 27.2599C295.581 27.4426 295.505 27.6792 295.505 27.9699C295.505 28.3851 295.656 28.6985 295.959 28.9103C296.262 29.122 296.648 29.2279 297.118 29.2279ZM308.626 21.1256V22.8693H303.127V21.1256H308.626ZM304.485 18.8337H306.739V27.8142C306.739 28.1173 306.785 28.3498 306.876 28.5117C306.972 28.6695 307.097 28.7774 307.25 28.8355C307.404 28.8937 307.574 28.9227 307.761 28.9227C307.902 28.9227 308.031 28.9123 308.147 28.8916C308.267 28.8708 308.359 28.8521 308.421 28.8355L308.801 30.598C308.68 30.6395 308.508 30.6852 308.284 30.735C308.064 30.7848 307.794 30.8139 307.474 30.8222C306.91 30.8388 306.401 30.7537 305.949 30.5669C305.496 30.3759 305.137 30.0811 304.871 29.6825C304.61 29.2839 304.481 28.7857 304.485 28.1878V18.8337ZM314.644 30.8782C313.685 30.8782 312.857 30.679 312.159 30.2804C311.466 29.8776 310.932 29.3088 310.559 28.574C310.185 27.8349 309.998 26.9651 309.998 25.9645C309.998 24.9805 310.185 24.117 310.559 23.3738C310.936 22.6264 311.464 22.0452 312.141 21.63C312.817 21.2107 313.612 21.001 314.526 21.001C315.115 21.001 315.672 21.0965 316.195 21.2875C316.722 21.4743 317.187 21.7649 317.59 22.1594C317.997 22.5538 318.316 23.0562 318.549 23.6665C318.781 24.2727 318.898 24.9951 318.898 25.8337V26.525H311.057V25.0055H316.737C316.732 24.5737 316.639 24.1896 316.456 23.8533C316.274 23.5129 316.018 23.2451 315.69 23.0499C315.367 22.8548 314.989 22.7572 314.557 22.7572C314.096 22.7572 313.691 22.8693 313.342 23.0935C312.994 23.3136 312.722 23.6042 312.527 23.9654C312.336 24.3225 312.238 24.7148 312.234 25.1425V26.469C312.234 27.0253 312.336 27.5028 312.539 27.9014C312.743 28.2958 313.027 28.5989 313.392 28.8106C313.758 29.0182 314.185 29.122 314.675 29.122C315.003 29.122 315.3 29.0763 315.566 28.985C315.832 28.8895 316.062 28.7504 316.257 28.5677C316.452 28.3851 316.6 28.1588 316.699 27.8889L318.804 28.1256C318.671 28.6819 318.418 29.1677 318.044 29.5829C317.675 29.9939 317.202 30.3136 316.625 30.5419C316.047 30.7661 315.387 30.8782 314.644 30.8782ZM324.355 30.8596C323.603 30.8596 322.931 30.6665 322.337 30.2804C321.743 29.8943 321.274 29.3338 320.929 28.5989C320.585 27.864 320.413 26.9714 320.413 25.9209C320.413 24.8581 320.587 23.9613 320.936 23.2305C321.289 22.4957 321.764 21.9414 322.362 21.5677C322.96 21.1899 323.626 21.001 324.361 21.001C324.921 21.001 325.382 21.0965 325.744 21.2875C326.105 21.4743 326.391 21.7006 326.603 21.9663C326.815 22.2279 326.979 22.4749 327.095 22.7074H327.188V17.9369H329.449V30.6914H327.232V29.1843H327.095C326.979 29.4168 326.811 29.6638 326.591 29.9254C326.37 30.1828 326.08 30.4029 325.719 30.5855C325.357 30.7682 324.903 30.8596 324.355 30.8596ZM324.984 29.0099C325.461 29.0099 325.868 28.8812 326.204 28.6238C326.541 28.3622 326.796 27.9989 326.97 27.5339C327.145 27.0689 327.232 26.5271 327.232 25.9085C327.232 25.2899 327.145 24.7522 326.97 24.2955C326.8 23.8388 326.547 23.4838 326.211 23.2305C325.878 22.9773 325.47 22.8506 324.984 22.8506C324.481 22.8506 324.062 22.9814 323.726 23.243C323.389 23.5046 323.136 23.8658 322.966 24.3266C322.796 24.7875 322.711 25.3148 322.711 25.9085C322.711 26.5063 322.796 27.0399 322.966 27.509C323.14 27.974 323.396 28.3415 323.732 28.6113C324.072 28.877 324.49 29.0099 324.984 29.0099Z" fill="#0F1828"/>
<rect x="337.07" y="13.7305" width="21.9218" height="21.9218" rx="10.9609" fill="#3ECF8E"/>
<path fill-rule="evenodd" clip-rule="evenodd" d="M352.803 21.0155C353.017 21.2295 353.017 21.5765 352.803 21.7905L346.774 27.819C346.56 28.0331 346.213 28.0331 345.999 27.819L343.259 25.0788C343.045 24.8648 343.045 24.5178 343.259 24.3038C343.473 24.0897 343.82 24.0897 344.034 24.3038L346.387 26.6565L352.028 21.0155C352.242 20.8015 352.589 20.8015 352.803 21.0155Z" fill="white"/>
<path d="M490.161 29.8367C489.476 29.8367 488.866 29.7191 488.329 29.4838C487.797 29.2485 487.373 28.9216 487.058 28.5029C486.746 28.0808 486.577 27.5913 486.549 27.0342H487.857C487.885 27.3768 488.002 27.6726 488.21 27.9217C488.418 28.1673 488.689 28.3576 489.025 28.4926C489.36 28.6275 489.732 28.695 490.141 28.695C490.597 28.695 491.002 28.6154 491.355 28.4562C491.708 28.2971 491.985 28.0756 492.185 27.7919C492.386 27.5082 492.486 27.1795 492.486 26.8059C492.486 26.4149 492.389 26.0706 492.196 25.7731C492.002 25.4721 491.718 25.2368 491.345 25.0673C490.971 24.8978 490.514 24.813 489.975 24.813H489.123V23.6712H489.975C490.397 23.6712 490.767 23.5951 491.085 23.4429C491.407 23.2906 491.658 23.0761 491.838 22.7993C492.021 22.5226 492.113 22.1973 492.113 21.8237C492.113 21.4638 492.033 21.1507 491.874 20.8843C491.715 20.6179 491.49 20.4103 491.199 20.2615C490.912 20.1127 490.573 20.0384 490.182 20.0384C489.815 20.0384 489.469 20.1058 489.144 20.2408C488.822 20.3722 488.559 20.5643 488.355 20.8168C488.151 21.0659 488.04 21.367 488.023 21.7199H486.778C486.798 21.1628 486.966 20.675 487.281 20.2563C487.596 19.8342 488.008 19.5055 488.516 19.2703C489.028 19.035 489.59 18.9174 490.203 18.9174C490.86 18.9174 491.424 19.0506 491.895 19.317C492.365 19.5799 492.727 19.9276 492.979 20.3601C493.232 20.7926 493.358 21.2597 493.358 21.7614C493.358 22.3599 493.201 22.8703 492.886 23.2924C492.575 23.7145 492.151 24.0068 491.614 24.1694V24.2525C492.286 24.3632 492.81 24.6486 493.187 25.1088C493.564 25.5655 493.753 26.1312 493.753 26.8059C493.753 27.3837 493.595 27.9027 493.28 28.3628C492.969 28.8195 492.543 29.1793 492.004 29.4423C491.464 29.7052 490.85 29.8367 490.161 29.8367ZM499.342 29.8367C498.56 29.8367 497.894 29.6239 497.344 29.1984C496.794 28.7694 496.374 28.1483 496.083 27.3352C495.792 26.5187 495.647 25.5326 495.647 24.377C495.647 23.2284 495.792 22.2475 496.083 21.4344C496.377 20.6179 496.799 19.9951 497.349 19.5661C497.903 19.1336 498.567 18.9174 499.342 18.9174C500.117 18.9174 500.78 19.1336 501.33 19.5661C501.883 19.9951 502.305 20.6179 502.596 21.4344C502.89 22.2475 503.037 23.2284 503.037 24.377C503.037 25.5326 502.892 26.5187 502.601 27.3352C502.311 28.1483 501.89 28.7694 501.34 29.1984C500.79 29.6239 500.124 29.8367 499.342 29.8367ZM499.342 28.695C500.117 28.695 500.719 28.3213 501.148 27.574C501.577 26.8266 501.792 25.761 501.792 24.377C501.792 23.4567 501.693 22.6731 501.496 22.0261C501.302 21.3791 501.022 20.886 500.655 20.547C500.292 20.2079 499.854 20.0384 499.342 20.0384C498.574 20.0384 497.974 20.4172 497.541 21.1749C497.109 21.9292 496.893 22.9966 496.893 24.377C496.893 25.2974 496.989 26.0793 497.183 26.7228C497.377 27.3664 497.655 27.8559 498.019 28.1916C498.385 28.5272 498.827 28.695 499.342 28.695ZM505.03 29.6914V21.7199H506.213V22.9654H506.317C506.483 22.5398 506.751 22.2094 507.122 21.9742C507.492 21.7354 507.936 21.6161 508.455 21.6161C508.981 21.6161 509.419 21.7354 509.768 21.9742C510.121 22.2094 510.396 22.5398 510.594 22.9654H510.677C510.881 22.5537 511.187 22.2267 511.595 21.9845C512.004 21.7389 512.493 21.6161 513.064 21.6161C513.777 21.6161 514.36 21.8392 514.813 22.2855C515.266 22.7284 515.493 23.4187 515.493 24.3563V29.6914H514.268V24.3563C514.268 23.7681 514.107 23.3477 513.785 23.0952C513.464 22.8426 513.085 22.7163 512.649 22.7163C512.088 22.7163 511.654 22.8858 511.346 23.2249C511.038 23.5605 510.884 23.9861 510.884 24.5016V29.6914H509.639V24.2317C509.639 23.7785 509.492 23.4135 509.198 23.1367C508.903 22.8564 508.525 22.7163 508.061 22.7163C507.743 22.7163 507.445 22.8011 507.168 22.9706C506.895 23.1401 506.674 23.3754 506.504 23.6764C506.338 23.974 506.255 24.3182 506.255 24.7092V29.6914H505.03ZM524.188 29.8782C523.683 29.8782 523.225 29.7831 522.813 29.5928C522.401 29.399 522.074 29.1205 521.832 28.7572C521.59 28.3905 521.469 27.9476 521.469 27.4286C521.469 26.9719 521.559 26.6017 521.739 26.318C521.919 26.0309 522.159 25.806 522.46 25.6434C522.761 25.4807 523.093 25.3596 523.457 25.2801C523.823 25.197 524.192 25.1313 524.562 25.0829C525.046 25.0206 525.439 24.9739 525.74 24.9427C526.045 24.9081 526.266 24.851 526.404 24.7715C526.546 24.6919 526.617 24.5535 526.617 24.3563V24.3148C526.617 23.8027 526.477 23.4048 526.197 23.1211C525.92 22.8374 525.5 22.6955 524.936 22.6955C524.351 22.6955 523.893 22.8236 523.56 23.0796C523.228 23.3356 522.995 23.609 522.86 23.8996L521.697 23.4844C521.905 23 522.182 22.6229 522.528 22.353C522.877 22.0797 523.258 21.8894 523.669 21.7821C524.085 21.6714 524.493 21.6161 524.894 21.6161C525.15 21.6161 525.444 21.6472 525.776 21.7095C526.112 21.7683 526.436 21.8911 526.747 22.078C527.062 22.2648 527.323 22.5468 527.531 22.9239C527.738 23.301 527.842 23.8062 527.842 24.4393V29.6914H526.617V28.6119H526.555C526.472 28.7849 526.333 28.97 526.14 29.1672C525.946 29.3644 525.688 29.5323 525.366 29.6706C525.045 29.809 524.652 29.8782 524.188 29.8782ZM524.375 28.778C524.86 28.778 525.268 28.6829 525.6 28.4926C525.936 28.3023 526.188 28.0566 526.358 27.7556C526.531 27.4546 526.617 27.138 526.617 26.8059V25.6849C526.565 25.7472 526.451 25.8042 526.275 25.8561C526.102 25.9046 525.901 25.9478 525.673 25.9859C525.448 26.0205 525.228 26.0516 525.013 26.0793C524.802 26.1035 524.631 26.1243 524.5 26.1416C524.181 26.1831 523.884 26.2506 523.607 26.344C523.334 26.4339 523.112 26.5706 522.943 26.754C522.777 26.9339 522.694 27.1795 522.694 27.4909C522.694 27.9165 522.851 28.2383 523.166 28.4562C523.484 28.6707 523.887 28.778 524.375 28.778ZM533.295 32.8468C532.703 32.8468 532.195 32.7707 531.769 32.6185C531.344 32.4697 530.989 32.2725 530.705 32.0268C530.425 31.7846 530.202 31.5251 530.036 31.2483L531.012 30.5633C531.122 30.7086 531.262 30.8747 531.432 31.0615C531.602 31.2518 531.833 31.4162 532.127 31.5545C532.425 31.6964 532.814 31.7673 533.295 31.7673C533.939 31.7673 534.47 31.6116 534.888 31.3002C535.307 30.9889 535.516 30.501 535.516 29.8367V28.2175H535.413C535.323 28.3628 535.195 28.5427 535.029 28.7572C534.866 28.9683 534.631 29.1569 534.323 29.3229C534.018 29.4855 533.607 29.5669 533.088 29.5669C532.444 29.5669 531.866 29.4146 531.354 29.1101C530.846 28.8057 530.442 28.3628 530.145 27.7816C529.851 27.2003 529.704 26.4945 529.704 25.6641C529.704 24.8476 529.847 24.1366 530.135 23.5311C530.422 22.9222 530.821 22.4516 531.333 22.1195C531.845 21.7839 532.437 21.6161 533.108 21.6161C533.627 21.6161 534.039 21.7026 534.343 21.8756C534.651 22.0451 534.887 22.2388 535.049 22.4568C535.215 22.6713 535.343 22.8478 535.433 22.9862H535.558V21.7199H536.741V29.9198C536.741 30.6048 536.585 31.1619 536.274 31.5909C535.966 32.0234 535.551 32.3399 535.029 32.5406C534.51 32.7447 533.932 32.8468 533.295 32.8468ZM533.254 28.4666C533.745 28.4666 534.16 28.3542 534.499 28.1293C534.838 27.9044 535.096 27.5809 535.272 27.1588C535.449 26.7367 535.537 26.2315 535.537 25.6434C535.537 25.069 535.451 24.5621 535.278 24.1227C535.105 23.6833 534.849 23.3391 534.51 23.09C534.17 22.8409 533.752 22.7163 533.254 22.7163C532.735 22.7163 532.302 22.8478 531.956 23.1107C531.614 23.3737 531.356 23.7266 531.183 24.1694C531.013 24.6123 530.929 25.1036 530.929 25.6434C530.929 26.1969 531.015 26.6865 531.188 27.1121C531.365 27.5342 531.624 27.8663 531.967 28.1085C532.313 28.3472 532.742 28.4666 533.254 28.4666ZM542.222 29.8575C541.502 29.8575 540.871 29.6862 540.327 29.3437C539.788 29.0012 539.365 28.522 539.061 27.9061C538.76 27.2903 538.609 26.5706 538.609 25.7472C538.609 24.9168 538.76 24.1919 539.061 23.5726C539.365 22.9533 539.788 22.4724 540.327 22.1299C540.871 21.7873 541.502 21.6161 542.222 21.6161C542.941 21.6161 543.571 21.7873 544.111 22.1299C544.654 22.4724 545.076 22.9533 545.377 23.5726C545.681 24.1919 545.834 24.9168 545.834 25.7472C545.834 26.5706 545.681 27.2903 545.377 27.9061C545.076 28.522 544.654 29.0012 544.111 29.3437C543.571 29.6862 542.941 29.8575 542.222 29.8575ZM542.222 28.7572C542.768 28.7572 543.218 28.6171 543.571 28.3369C543.924 28.0566 544.185 27.6881 544.355 27.2314C544.524 26.7747 544.609 26.28 544.609 25.7472C544.609 25.2143 544.524 24.7178 544.355 24.2577C544.185 23.7975 543.924 23.4256 543.571 23.1419C543.218 22.8582 542.768 22.7163 542.222 22.7163C541.675 22.7163 541.225 22.8582 540.872 23.1419C540.519 23.4256 540.258 23.7975 540.089 24.2577C539.919 24.7178 539.834 25.2143 539.834 25.7472C539.834 26.28 539.919 26.7747 540.089 27.2314C540.258 27.6881 540.519 28.0566 540.872 28.3369C541.225 28.6171 541.675 28.7572 542.222 28.7572Z" fill="#ADB5BD"/>
<path d="M106.947 59.5371H105.598L109.501 48.9084H110.829L114.732 59.5371H113.383L110.207 50.5899H110.124L106.947 59.5371ZM107.446 55.3853H112.885V56.527H107.446V55.3853ZM121.557 54.7417V59.5371H120.332V51.5656H121.515V52.8111H121.619C121.806 52.4063 122.09 52.0811 122.47 51.8354C122.851 51.5863 123.342 51.4618 123.944 51.4618C124.484 51.4618 124.956 51.5725 125.361 51.7939C125.766 52.0119 126.081 52.344 126.305 52.7904C126.53 53.2332 126.643 53.7937 126.643 54.4719V59.5371H125.418V54.5549C125.418 53.9287 125.255 53.4408 124.93 53.0914C124.605 52.7385 124.159 52.562 123.591 52.562C123.2 52.562 122.851 52.6468 122.543 52.8163C122.238 52.9858 121.998 53.2332 121.821 53.5584C121.645 53.8837 121.557 54.2781 121.557 54.7417ZM132.223 59.7032C131.455 59.7032 130.792 59.5336 130.235 59.1946C129.682 58.8521 129.255 58.3746 128.954 57.7622C128.656 57.1463 128.507 56.4301 128.507 55.6136C128.507 54.7971 128.656 54.0774 128.954 53.4547C129.255 52.8284 129.673 52.3406 130.209 51.9911C130.749 51.6382 131.379 51.4618 132.099 51.4618C132.514 51.4618 132.924 51.531 133.329 51.6694C133.733 51.8078 134.102 52.0326 134.434 52.344C134.766 52.652 135.031 53.0602 135.228 53.5688C135.425 54.0774 135.524 54.7037 135.524 55.4475V55.9665H129.379V54.9078H134.278C134.278 54.458 134.188 54.0567 134.008 53.7038C133.832 53.3509 133.579 53.0723 133.251 52.8682C132.925 52.6641 132.541 52.562 132.099 52.562C131.611 52.562 131.189 52.6831 130.832 52.9253C130.479 53.164 130.208 53.4754 130.017 53.8595C129.827 54.2435 129.732 54.6552 129.732 55.0946V55.8004C129.732 56.4025 129.836 56.9128 130.043 57.3314C130.254 57.7466 130.547 58.0632 130.92 58.2812C131.294 58.4957 131.728 58.6029 132.223 58.6029C132.545 58.6029 132.835 58.558 133.095 58.468C133.358 58.3746 133.585 58.2362 133.775 58.0528C133.965 57.866 134.112 57.6342 134.216 57.3574L135.399 57.6895C135.275 58.0909 135.065 58.4438 134.771 58.7483C134.477 59.0493 134.114 59.2845 133.681 59.4541C133.249 59.6201 132.763 59.7032 132.223 59.7032ZM139.193 59.5371L136.764 51.5656H138.051L139.774 57.6688H139.857L141.56 51.5656H142.867L144.549 57.648H144.632L146.355 51.5656H147.642L145.213 59.5371H144.009L142.265 53.4131H142.141L140.397 59.5371H139.193ZM156.838 51.5656V52.6035H152.707V51.5656H156.838ZM153.911 49.6557H155.136V57.2536C155.136 57.5996 155.186 57.8591 155.287 58.0321C155.39 58.2016 155.522 58.3158 155.681 58.3746C155.844 58.43 156.015 58.4576 156.195 58.4576C156.33 58.4576 156.44 58.4507 156.527 58.4369C156.613 58.4196 156.683 58.4057 156.735 58.3954L156.984 59.4956C156.901 59.5267 156.785 59.5579 156.636 59.589C156.487 59.6236 156.299 59.6409 156.07 59.6409C155.724 59.6409 155.385 59.5665 155.053 59.4177C154.724 59.269 154.451 59.0423 154.233 58.7379C154.019 58.4334 153.911 58.0494 153.911 57.5857V49.6557ZM161.027 59.7239C160.521 59.7239 160.063 59.6288 159.651 59.4385C159.239 59.2448 158.913 58.9662 158.67 58.6029C158.428 58.2362 158.307 57.7933 158.307 57.2744C158.307 56.8176 158.397 56.4474 158.577 56.1637C158.757 55.8766 158.997 55.6517 159.298 55.4891C159.599 55.3264 159.931 55.2053 160.295 55.1258C160.662 55.0427 161.03 54.977 161.4 54.9286C161.885 54.8663 162.277 54.8196 162.578 54.7884C162.883 54.7538 163.104 54.6967 163.243 54.6172C163.384 54.5376 163.455 54.3992 163.455 54.202V54.1605C163.455 53.6484 163.315 53.2505 163.035 52.9668C162.758 52.6831 162.338 52.5412 161.774 52.5412C161.189 52.5412 160.731 52.6693 160.399 52.9253C160.066 53.1813 159.833 53.4547 159.698 53.7453L158.535 53.3301C158.743 52.8457 159.02 52.4686 159.366 52.1987C159.715 51.9254 160.096 51.7351 160.508 51.6278C160.923 51.5171 161.331 51.4618 161.732 51.4618C161.988 51.4618 162.282 51.4929 162.615 51.5552C162.95 51.614 163.274 51.7368 163.585 51.9237C163.9 52.1105 164.161 52.3925 164.369 52.7696C164.576 53.1467 164.68 53.6519 164.68 54.285V59.5371H163.455V58.4576H163.393C163.31 58.6306 163.172 58.8157 162.978 59.0129C162.784 59.2102 162.526 59.378 162.205 59.5164C161.883 59.6547 161.49 59.7239 161.027 59.7239ZM161.213 58.6237C161.698 58.6237 162.106 58.5286 162.438 58.3383C162.774 58.148 163.026 57.9023 163.196 57.6013C163.369 57.3003 163.455 56.9837 163.455 56.6516V55.5306C163.403 55.5929 163.289 55.6499 163.113 55.7018C162.94 55.7503 162.739 55.7935 162.511 55.8316C162.286 55.8662 162.066 55.8973 161.852 55.925C161.641 55.9492 161.469 55.97 161.338 55.9873C161.02 56.0288 160.722 56.0963 160.445 56.1897C160.172 56.2796 159.951 56.4163 159.781 56.5997C159.615 56.7796 159.532 57.0252 159.532 57.3366C159.532 57.7622 159.689 58.084 160.004 58.3019C160.322 58.5164 160.726 58.6237 161.213 58.6237ZM170.382 51.5656V52.6035H166.251V51.5656H170.382ZM167.455 49.6557H168.68V57.2536C168.68 57.5996 168.73 57.8591 168.831 58.0321C168.934 58.2016 169.066 58.3158 169.225 58.3746C169.388 58.43 169.559 58.4576 169.739 58.4576C169.874 58.4576 169.985 58.4507 170.071 58.4369C170.158 58.4196 170.227 58.4057 170.279 58.3954L170.528 59.4956C170.445 59.5267 170.329 59.5579 170.18 59.589C170.031 59.6236 169.843 59.6409 169.614 59.6409C169.268 59.6409 168.929 59.5665 168.597 59.4177C168.268 59.269 167.995 59.0423 167.777 58.7379C167.563 58.4334 167.455 58.0494 167.455 57.5857V49.6557ZM175.692 51.5656V52.6035H171.561V51.5656H175.692ZM172.765 49.6557H173.989V57.2536C173.989 57.5996 174.04 57.8591 174.14 58.0321C174.244 58.2016 174.375 58.3158 174.534 58.3746C174.697 58.43 174.868 58.4576 175.048 58.4576C175.183 58.4576 175.294 58.4507 175.38 58.4369C175.467 58.4196 175.536 58.4057 175.588 58.3954L175.837 59.4956C175.754 59.5267 175.638 59.5579 175.489 59.589C175.34 59.6236 175.152 59.6409 174.924 59.6409C174.578 59.6409 174.238 59.5665 173.906 59.4177C173.578 59.269 173.304 59.0423 173.086 58.7379C172.872 58.4334 172.765 58.0494 172.765 57.5857V49.6557ZM180.687 59.7032C179.967 59.7032 179.336 59.5319 178.793 59.1894C178.253 58.8469 177.831 58.3677 177.526 57.7518C177.225 57.136 177.075 56.4163 177.075 55.5929C177.075 54.7625 177.225 54.0376 177.526 53.4183C177.831 52.799 178.253 52.3181 178.793 51.9756C179.336 51.633 179.967 51.4618 180.687 51.4618C181.406 51.4618 182.036 51.633 182.576 51.9756C183.119 52.3181 183.541 52.799 183.842 53.4183C184.147 54.0376 184.299 54.7625 184.299 55.5929C184.299 56.4163 184.147 57.136 183.842 57.7518C183.541 58.3677 183.119 58.8469 182.576 59.1894C182.036 59.5319 181.406 59.7032 180.687 59.7032ZM180.687 58.6029C181.233 58.6029 181.683 58.4628 182.036 58.1826C182.389 57.9023 182.65 57.5338 182.82 57.0771C182.989 56.6204 183.074 56.1257 183.074 55.5929C183.074 55.06 182.989 54.5635 182.82 54.1034C182.65 53.6432 182.389 53.2713 182.036 52.9876C181.683 52.7039 181.233 52.562 180.687 52.562C180.14 52.562 179.69 52.7039 179.337 52.9876C178.985 53.2713 178.723 53.6432 178.554 54.1034C178.384 54.5635 178.3 55.06 178.3 55.5929C178.3 56.1257 178.384 56.6204 178.554 57.0771C178.723 57.5338 178.985 57.9023 179.337 58.1826C179.69 58.4628 180.14 58.6029 180.687 58.6029ZM189.407 59.7032C188.687 59.7032 188.056 59.5319 187.513 59.1894C186.973 58.8469 186.551 58.3677 186.246 57.7518C185.945 57.136 185.795 56.4163 185.795 55.5929C185.795 54.7625 185.945 54.0376 186.246 53.4183C186.551 52.799 186.973 52.3181 187.513 51.9756C188.056 51.633 188.687 51.4618 189.407 51.4618C190.127 51.4618 190.756 51.633 191.296 51.9756C191.839 52.3181 192.261 52.799 192.562 53.4183C192.867 54.0376 193.019 54.7625 193.019 55.5929C193.019 56.4163 192.867 57.136 192.562 57.7518C192.261 58.3677 191.839 58.8469 191.296 59.1894C190.756 59.5319 190.127 59.7032 189.407 59.7032ZM189.407 58.6029C189.954 58.6029 190.403 58.4628 190.756 58.1826C191.109 57.9023 191.37 57.5338 191.54 57.0771C191.71 56.6204 191.794 56.1257 191.794 55.5929C191.794 55.06 191.71 54.5635 191.54 54.1034C191.37 53.6432 191.109 53.2713 190.756 52.9876C190.403 52.7039 189.954 52.562 189.407 52.562C188.86 52.562 188.411 52.7039 188.058 52.9876C187.705 53.2713 187.444 53.6432 187.274 54.1034C187.104 54.5635 187.02 55.06 187.02 55.5929C187.02 56.1257 187.104 56.6204 187.274 57.0771C187.444 57.5338 187.705 57.9023 188.058 58.1826C188.411 58.4628 188.86 58.6029 189.407 58.6029ZM201.345 59.7239C200.84 59.7239 200.381 59.6288 199.97 59.4385C199.558 59.2448 199.231 58.9662 198.989 58.6029C198.746 58.2362 198.625 57.7933 198.625 57.2744C198.625 56.8176 198.715 56.4474 198.895 56.1637C199.075 55.8766 199.316 55.6517 199.617 55.4891C199.918 55.3264 200.25 55.2053 200.613 55.1258C200.98 55.0427 201.348 54.977 201.719 54.9286C202.203 54.8663 202.596 54.8196 202.897 54.7884C203.201 54.7538 203.422 54.6967 203.561 54.6172C203.703 54.5376 203.774 54.3992 203.774 54.202V54.1605C203.774 53.6484 203.634 53.2505 203.353 52.9668C203.077 52.6831 202.656 52.5412 202.092 52.5412C201.507 52.5412 201.049 52.6693 200.717 52.9253C200.385 53.1813 200.151 53.4547 200.016 53.7453L198.854 53.3301C199.061 52.8457 199.338 52.4686 199.684 52.1987C200.034 51.9254 200.414 51.7351 200.826 51.6278C201.241 51.5171 201.649 51.4618 202.051 51.4618C202.307 51.4618 202.601 51.4929 202.933 51.5552C203.269 51.614 203.592 51.7368 203.903 51.9237C204.218 52.1105 204.479 52.3925 204.687 52.7696C204.895 53.1467 204.998 53.6519 204.998 54.285V59.5371H203.774V58.4576H203.711C203.628 58.6306 203.49 58.8157 203.296 59.0129C203.102 59.2102 202.845 59.378 202.523 59.5164C202.201 59.6547 201.808 59.7239 201.345 59.7239ZM201.532 58.6237C202.016 58.6237 202.424 58.5286 202.756 58.3383C203.092 58.148 203.345 57.9023 203.514 57.6013C203.687 57.3003 203.774 56.9837 203.774 56.6516V55.5306C203.722 55.5929 203.608 55.6499 203.431 55.7018C203.258 55.7503 203.057 55.7935 202.829 55.8316C202.604 55.8662 202.385 55.8973 202.17 55.925C201.959 55.9492 201.788 55.97 201.656 55.9873C201.338 56.0288 201.04 56.0963 200.764 56.1897C200.49 56.2796 200.269 56.4163 200.099 56.5997C199.933 56.7796 199.85 57.0252 199.85 57.3366C199.85 57.7622 200.008 58.084 200.322 58.3019C200.641 58.5164 201.044 58.6237 201.532 58.6237ZM207.234 62.5264V51.5656H208.417V52.8319H208.563C208.653 52.6935 208.777 52.517 208.936 52.3025C209.099 52.0845 209.331 51.8908 209.632 51.7213C209.936 51.5483 210.348 51.4618 210.867 51.4618C211.538 51.4618 212.13 51.6296 212.642 51.9652C213.154 52.3008 213.553 52.7765 213.841 53.3924C214.128 54.0082 214.271 54.7348 214.271 55.5721C214.271 56.4163 214.128 57.1481 213.841 57.7674C213.553 58.3832 213.156 58.8607 212.647 59.1998C212.138 59.5354 211.552 59.7032 210.888 59.7032C210.376 59.7032 209.966 59.6184 209.658 59.4489C209.35 59.2759 209.113 59.0804 208.947 58.8624C208.781 58.641 208.653 58.4576 208.563 58.3123H208.459V62.5264H207.234ZM208.438 55.5513C208.438 56.1534 208.526 56.6844 208.703 57.1446C208.879 57.6013 209.137 57.9594 209.476 58.2189C209.815 58.4749 210.23 58.6029 210.722 58.6029C211.234 58.6029 211.661 58.468 212.003 58.1981C212.349 57.9248 212.609 57.5581 212.782 57.0979C212.958 56.6343 213.047 56.1188 213.047 55.5513C213.047 54.9908 212.96 54.4857 212.787 54.0359C212.618 53.5827 212.36 53.2246 212.014 52.9616C211.671 52.6952 211.241 52.562 210.722 52.562C210.223 52.562 209.805 52.6883 209.466 52.9409C209.127 53.19 208.871 53.5394 208.698 53.9892C208.525 54.4355 208.438 54.9562 208.438 55.5513ZM216.14 62.5264V51.5656H217.323V52.8319H217.468C217.558 52.6935 217.683 52.517 217.842 52.3025C218.005 52.0845 218.236 51.8908 218.537 51.7213C218.842 51.5483 219.254 51.4618 219.773 51.4618C220.444 51.4618 221.035 51.6296 221.547 51.9652C222.06 52.3008 222.459 52.7765 222.746 53.3924C223.033 54.0082 223.177 54.7348 223.177 55.5721C223.177 56.4163 223.033 57.1481 222.746 57.7674C222.459 58.3832 222.061 58.8607 221.553 59.1998C221.044 59.5354 220.458 59.7032 219.793 59.7032C219.281 59.7032 218.871 59.6184 218.563 59.4489C218.255 59.2759 218.018 59.0804 217.852 58.8624C217.686 58.641 217.558 58.4576 217.468 58.3123H217.364V62.5264H216.14ZM217.344 55.5513C217.344 56.1534 217.432 56.6844 217.608 57.1446C217.785 57.6013 218.043 57.9594 218.382 58.2189C218.721 58.4749 219.136 58.6029 219.627 58.6029C220.139 58.6029 220.567 58.468 220.909 58.1981C221.255 57.9248 221.515 57.5581 221.688 57.0979C221.864 56.6343 221.952 56.1188 221.952 55.5513C221.952 54.9908 221.866 54.4857 221.693 54.0359C221.523 53.5827 221.265 53.2246 220.92 52.9616C220.577 52.6952 220.146 52.562 219.627 52.562C219.129 52.562 218.71 52.6883 218.371 52.9409C218.032 53.19 217.776 53.5394 217.603 53.9892C217.43 54.4355 217.344 54.9562 217.344 55.5513ZM228.284 59.7032C227.564 59.7032 226.933 59.5319 226.39 59.1894C225.85 58.8469 225.428 58.3677 225.123 57.7518C224.822 57.136 224.672 56.4163 224.672 55.5929C224.672 54.7625 224.822 54.0376 225.123 53.4183C225.428 52.799 225.85 52.3181 226.39 51.9756C226.933 51.633 227.564 51.4618 228.284 51.4618C229.004 51.4618 229.633 51.633 230.173 51.9756C230.716 52.3181 231.138 52.799 231.439 53.4183C231.744 54.0376 231.896 54.7625 231.896 55.5929C231.896 56.4163 231.744 57.136 231.439 57.7518C231.138 58.3677 230.716 58.8469 230.173 59.1894C229.633 59.5319 229.004 59.7032 228.284 59.7032ZM228.284 58.6029C228.831 58.6029 229.28 58.4628 229.633 58.1826C229.986 57.9023 230.247 57.5338 230.417 57.0771C230.586 56.6204 230.671 56.1257 230.671 55.5929C230.671 55.06 230.586 54.5635 230.417 54.1034C230.247 53.6432 229.986 53.2713 229.633 52.9876C229.28 52.7039 228.831 52.562 228.284 52.562C227.737 52.562 227.287 52.7039 226.934 52.9876C226.582 53.2713 226.32 53.6432 226.151 54.1034C225.981 54.5635 225.897 55.06 225.897 55.5929C225.897 56.1257 225.981 56.6204 226.151 57.0771C226.32 57.5338 226.582 57.9023 226.934 58.1826C227.287 58.4628 227.737 58.6029 228.284 58.6029ZM233.766 59.5371V51.5656H234.99V59.5371H233.766ZM234.388 50.237C234.15 50.237 233.944 50.1557 233.771 49.9931C233.601 49.8304 233.516 49.635 233.516 49.4066C233.516 49.1783 233.601 48.9828 233.771 48.8202C233.944 48.6575 234.15 48.5762 234.388 48.5762C234.627 48.5762 234.831 48.6575 235.001 48.8202C235.174 48.9828 235.26 49.1783 235.26 49.4066C235.26 49.635 235.174 49.8304 235.001 49.9931C234.831 50.1557 234.627 50.237 234.388 50.237ZM238.458 54.7417V59.5371H237.234V51.5656H238.417V52.8111H238.521C238.708 52.4063 238.991 52.0811 239.372 51.8354C239.752 51.5863 240.244 51.4618 240.846 51.4618C241.386 51.4618 241.858 51.5725 242.263 51.7939C242.667 52.0119 242.982 52.344 243.207 52.7904C243.432 53.2332 243.544 53.7937 243.544 54.4719V59.5371H242.32V54.5549C242.32 53.9287 242.157 53.4408 241.832 53.0914C241.507 52.7385 241.06 52.562 240.493 52.562C240.102 52.562 239.752 52.6468 239.445 52.8163C239.14 52.9858 238.9 53.2332 238.723 53.5584C238.547 53.8837 238.458 54.2781 238.458 54.7417ZM249.249 51.5656V52.6035H245.118V51.5656H249.249ZM246.322 49.6557H247.547V57.2536C247.547 57.5996 247.597 57.8591 247.698 58.0321C247.801 58.2016 247.933 58.3158 248.092 58.3746C248.255 58.43 248.426 58.4576 248.606 58.4576C248.741 58.4576 248.851 58.4507 248.938 58.4369C249.024 58.4196 249.094 58.4057 249.146 58.3954L249.395 59.4956C249.312 59.5267 249.196 59.5579 249.047 59.589C248.898 59.6236 248.71 59.6409 248.481 59.6409C248.135 59.6409 247.796 59.5665 247.464 59.4177C247.135 59.269 246.862 59.0423 246.644 58.7379C246.43 58.4334 246.322 58.0494 246.322 57.5857V49.6557ZM251.092 59.5371V51.5656H252.275V52.8111H252.379C252.545 52.3856 252.813 52.0551 253.183 51.8199C253.553 51.5811 253.998 51.4618 254.517 51.4618C255.043 51.4618 255.481 51.5811 255.83 51.8199C256.183 52.0551 256.458 52.3856 256.655 52.8111H256.738C256.942 52.3994 257.249 52.0724 257.657 51.8302C258.065 51.5846 258.555 51.4618 259.126 51.4618C259.838 51.4618 260.421 51.6849 260.875 52.1313C261.328 52.5741 261.554 53.2644 261.554 54.202V59.5371H260.33V54.202C260.33 53.6138 260.169 53.1934 259.847 52.9409C259.525 52.6883 259.146 52.562 258.71 52.562C258.15 52.562 257.716 52.7315 257.408 53.0706C257.1 53.4062 256.946 53.8318 256.946 54.3473V59.5371H255.7V54.0774C255.7 53.6242 255.553 53.2592 255.259 52.9824C254.965 52.7021 254.586 52.562 254.123 52.562C253.804 52.562 253.507 52.6468 253.23 52.8163C252.957 52.9858 252.735 53.2211 252.566 53.5221C252.4 53.8197 252.317 54.1639 252.317 54.5549V59.5371H251.092ZM267.136 59.7032C266.368 59.7032 265.705 59.5336 265.148 59.1946C264.595 58.8521 264.167 58.3746 263.866 57.7622C263.569 57.1463 263.42 56.4301 263.42 55.6136C263.42 54.7971 263.569 54.0774 263.866 53.4547C264.167 52.8284 264.586 52.3406 265.122 51.9911C265.662 51.6382 266.292 51.4618 267.011 51.4618C267.427 51.4618 267.837 51.531 268.241 51.6694C268.646 51.8078 269.015 52.0326 269.347 52.344C269.679 52.652 269.944 53.0602 270.141 53.5688C270.338 54.0774 270.437 54.7037 270.437 55.4475V55.9665H264.292V54.9078H269.191C269.191 54.458 269.101 54.0567 268.921 53.7038C268.745 53.3509 268.492 53.0723 268.164 52.8682C267.838 52.6641 267.454 52.562 267.011 52.562C266.524 52.562 266.102 52.6831 265.745 52.9253C265.392 53.164 265.121 53.4754 264.93 53.8595C264.74 54.2435 264.645 54.6552 264.645 55.0946V55.8004C264.645 56.4025 264.749 56.9128 264.956 57.3314C265.167 57.7466 265.46 58.0632 265.833 58.2812C266.207 58.4957 266.641 58.6029 267.136 58.6029C267.458 58.6029 267.748 58.558 268.008 58.468C268.271 58.3746 268.498 58.2362 268.688 58.0528C268.878 57.866 269.025 57.6342 269.129 57.3574L270.312 57.6895C270.188 58.0909 269.978 58.4438 269.684 58.7483C269.39 59.0493 269.027 59.2845 268.594 59.4541C268.162 59.6201 267.676 59.7032 267.136 59.7032ZM273.525 54.7417V59.5371H272.3V51.5656H273.483V52.8111H273.587C273.774 52.4063 274.058 52.0811 274.438 51.8354C274.819 51.5863 275.31 51.4618 275.912 51.4618C276.452 51.4618 276.924 51.5725 277.329 51.7939C277.734 52.0119 278.048 52.344 278.273 52.7904C278.498 53.2332 278.611 53.7937 278.611 54.4719V59.5371H277.386V54.5549C277.386 53.9287 277.223 53.4408 276.898 53.0914C276.573 52.7385 276.127 52.562 275.559 52.562C275.168 52.562 274.819 52.6468 274.511 52.8163C274.206 52.9858 273.966 53.2332 273.789 53.5584C273.613 53.8837 273.525 54.2781 273.525 54.7417ZM284.316 51.5656V52.6035H280.185V51.5656H284.316ZM281.389 49.6557H282.613V57.2536C282.613 57.5996 282.664 57.8591 282.764 58.0321C282.868 58.2016 282.999 58.3158 283.158 58.3746C283.321 58.43 283.492 58.4576 283.672 58.4576C283.807 58.4576 283.918 58.4507 284.004 58.4369C284.091 58.4196 284.16 58.4057 284.212 58.3954L284.461 59.4956C284.378 59.5267 284.262 59.5579 284.113 59.589C283.964 59.6236 283.776 59.6409 283.548 59.6409C283.202 59.6409 282.862 59.5665 282.53 59.4177C282.202 59.269 281.928 59.0423 281.71 58.7379C281.496 58.4334 281.389 58.0494 281.389 57.5857V49.6557ZM291.493 54.7417V59.5371H290.268V48.9084H291.493V52.8111H291.597C291.784 52.3994 292.064 52.0724 292.438 51.8302C292.815 51.5846 293.316 51.4618 293.943 51.4618C294.486 51.4618 294.962 51.5708 295.37 51.7887C295.778 52.0032 296.095 52.3337 296.32 52.78C296.548 53.2228 296.662 53.7868 296.662 54.4719V59.5371H295.437V54.5549C295.437 53.9217 295.273 53.4322 294.944 53.0862C294.619 52.7367 294.168 52.562 293.59 52.562C293.188 52.562 292.829 52.6468 292.51 52.8163C292.195 52.9858 291.946 53.2332 291.763 53.5584C291.583 53.8837 291.493 54.2781 291.493 54.7417ZM301.249 59.7239C300.744 59.7239 300.285 59.6288 299.873 59.4385C299.462 59.2448 299.135 58.9662 298.892 58.6029C298.65 58.2362 298.529 57.7933 298.529 57.2744C298.529 56.8176 298.619 56.4474 298.799 56.1637C298.979 55.8766 299.219 55.6517 299.52 55.4891C299.821 55.3264 300.154 55.2053 300.517 55.1258C300.884 55.0427 301.252 54.977 301.622 54.9286C302.107 54.8663 302.499 54.8196 302.8 54.7884C303.105 54.7538 303.326 54.6967 303.465 54.6172C303.607 54.5376 303.677 54.3992 303.677 54.202V54.1605C303.677 53.6484 303.537 53.2505 303.257 52.9668C302.98 52.6831 302.56 52.5412 301.996 52.5412C301.411 52.5412 300.953 52.6693 300.621 52.9253C300.289 53.1813 300.055 53.4547 299.92 53.7453L298.758 53.3301C298.965 52.8457 299.242 52.4686 299.588 52.1987C299.937 51.9254 300.318 51.7351 300.73 51.6278C301.145 51.5171 301.553 51.4618 301.954 51.4618C302.211 51.4618 302.505 51.4929 302.837 51.5552C303.172 51.614 303.496 51.7368 303.807 51.9237C304.122 52.1105 304.383 52.3925 304.591 52.7696C304.798 53.1467 304.902 53.6519 304.902 54.285V59.5371H303.677V58.4576H303.615C303.532 58.6306 303.394 58.8157 303.2 59.0129C303.006 59.2102 302.749 59.378 302.427 59.5164C302.105 59.6547 301.712 59.7239 301.249 59.7239ZM301.435 58.6237C301.92 58.6237 302.328 58.5286 302.66 58.3383C302.996 58.148 303.248 57.9023 303.418 57.6013C303.591 57.3003 303.677 56.9837 303.677 56.6516V55.5306C303.626 55.5929 303.511 55.6499 303.335 55.7018C303.162 55.7503 302.961 55.7935 302.733 55.8316C302.508 55.8662 302.288 55.8973 302.074 55.925C301.863 55.9492 301.692 55.97 301.56 55.9873C301.242 56.0288 300.944 56.0963 300.667 56.1897C300.394 56.2796 300.173 56.4163 300.003 56.5997C299.837 56.7796 299.754 57.0252 299.754 57.3366C299.754 57.7622 299.911 58.084 300.226 58.3019C300.545 58.5164 300.948 58.6237 301.435 58.6237ZM312.784 53.3509L311.684 53.6622C311.615 53.4789 311.513 53.3007 311.378 53.1277C311.246 52.9512 311.066 52.8059 310.838 52.6918C310.61 52.5776 310.317 52.5205 309.961 52.5205C309.473 52.5205 309.067 52.6329 308.741 52.8578C308.42 53.0793 308.259 53.3612 308.259 53.7038C308.259 54.0082 308.37 54.2487 308.591 54.4251C308.812 54.6016 309.158 54.7486 309.629 54.8663L310.812 55.1569C311.525 55.3299 312.056 55.5946 312.405 55.951C312.755 56.3039 312.93 56.7588 312.93 57.3159C312.93 57.7726 312.798 58.1808 312.535 58.5407C312.276 58.9005 311.912 59.1842 311.445 59.3918C310.978 59.5994 310.435 59.7032 309.816 59.7032C309.003 59.7032 308.33 59.5267 307.797 59.1738C307.264 58.8209 306.927 58.3054 306.785 57.6273L307.947 57.3366C308.058 57.7657 308.267 58.0874 308.575 58.3019C308.887 58.5164 309.293 58.6237 309.795 58.6237C310.366 58.6237 310.819 58.5026 311.155 58.2604C311.494 58.0148 311.663 57.7207 311.663 57.3781C311.663 57.1014 311.566 56.8695 311.373 56.6827C311.179 56.4924 310.881 56.3506 310.48 56.2572L309.151 55.9458C308.421 55.7728 307.885 55.5046 307.543 55.1413C307.204 54.7746 307.034 54.3162 307.034 53.766C307.034 53.3163 307.16 52.9184 307.413 52.5724C307.669 52.2264 308.017 51.9548 308.456 51.7576C308.899 51.5604 309.401 51.4618 309.961 51.4618C310.75 51.4618 311.369 51.6348 311.819 51.9807C312.272 52.3267 312.594 52.7834 312.784 53.3509ZM319.05 59.5371V48.9084H320.274V52.8319H320.378C320.468 52.6935 320.593 52.517 320.752 52.3025C320.915 52.0845 321.146 51.8908 321.447 51.7213C321.752 51.5483 322.164 51.4618 322.683 51.4618C323.354 51.4618 323.945 51.6296 324.457 51.9652C324.97 52.3008 325.369 52.7765 325.656 53.3924C325.943 54.0082 326.087 54.7348 326.087 55.5721C326.087 56.4163 325.943 57.1481 325.656 57.7674C325.369 58.3832 324.971 58.8607 324.463 59.1998C323.954 59.5354 323.368 59.7032 322.703 59.7032C322.191 59.7032 321.781 59.6184 321.473 59.4489C321.165 59.2759 320.928 59.0804 320.762 58.8624C320.596 58.641 320.468 58.4576 320.378 58.3123H320.233V59.5371H319.05ZM320.254 55.5513C320.254 56.1534 320.342 56.6844 320.518 57.1446C320.695 57.6013 320.953 57.9594 321.292 58.2189C321.631 58.4749 322.046 58.6029 322.537 58.6029C323.049 58.6029 323.477 58.468 323.819 58.1981C324.165 57.9248 324.425 57.5581 324.598 57.0979C324.774 56.6343 324.862 56.1188 324.862 55.5513C324.862 54.9908 324.776 54.4857 324.603 54.0359C324.433 53.5827 324.176 53.2246 323.83 52.9616C323.487 52.6952 323.056 52.562 322.537 52.562C322.039 52.562 321.62 52.6883 321.281 52.9409C320.942 53.19 320.686 53.5394 320.513 53.9892C320.34 54.4355 320.254 54.9562 320.254 55.5513ZM331.303 59.7032C330.535 59.7032 329.872 59.5336 329.315 59.1946C328.762 58.8521 328.334 58.3746 328.033 57.7622C327.736 57.1463 327.587 56.4301 327.587 55.6136C327.587 54.7971 327.736 54.0774 328.033 53.4547C328.334 52.8284 328.753 52.3406 329.289 51.9911C329.829 51.6382 330.459 51.4618 331.178 51.4618C331.593 51.4618 332.003 51.531 332.408 51.6694C332.813 51.8078 333.182 52.0326 333.514 52.344C333.846 52.652 334.111 53.0602 334.308 53.5688C334.505 54.0774 334.604 54.7037 334.604 55.4475V55.9665H328.459V54.9078H333.358C333.358 54.458 333.268 54.0567 333.088 53.7038C332.912 53.3509 332.659 53.0723 332.33 52.8682C332.005 52.6641 331.621 52.562 331.178 52.562C330.69 52.562 330.268 52.6831 329.912 52.9253C329.559 53.164 329.287 53.4754 329.097 53.8595C328.907 54.2435 328.812 54.6552 328.812 55.0946V55.8004C328.812 56.4025 328.916 56.9128 329.123 57.3314C329.334 57.7466 329.627 58.0632 330 58.2812C330.374 58.4957 330.808 58.6029 331.303 58.6029C331.625 58.6029 331.915 58.558 332.175 58.468C332.438 58.3746 332.664 58.2362 332.855 58.0528C333.045 57.866 333.192 57.6342 333.296 57.3574L334.479 57.6895C334.354 58.0909 334.145 58.4438 333.851 58.7483C333.557 59.0493 333.194 59.2845 332.761 59.4541C332.329 59.6201 331.843 59.7032 331.303 59.7032ZM339.809 59.7032C339.041 59.7032 338.378 59.5336 337.821 59.1946C337.268 58.8521 336.84 58.3746 336.539 57.7622C336.242 57.1463 336.093 56.4301 336.093 55.6136C336.093 54.7971 336.242 54.0774 336.539 53.4547C336.84 52.8284 337.259 52.3406 337.795 51.9911C338.335 51.6382 338.965 51.4618 339.684 51.4618C340.1 51.4618 340.51 51.531 340.914 51.6694C341.319 51.8078 341.688 52.0326 342.02 52.344C342.352 52.652 342.617 53.0602 342.814 53.5688C343.011 54.0774 343.11 54.7037 343.11 55.4475V55.9665H336.965V54.9078H341.864C341.864 54.458 341.774 54.0567 341.594 53.7038C341.418 53.3509 341.165 53.0723 340.837 52.8682C340.511 52.6641 340.127 52.562 339.684 52.562C339.197 52.562 338.774 52.6831 338.418 52.9253C338.065 53.164 337.794 53.4754 337.603 53.8595C337.413 54.2435 337.318 54.6552 337.318 55.0946V55.8004C337.318 56.4025 337.422 56.9128 337.629 57.3314C337.84 57.7466 338.133 58.0632 338.506 58.2812C338.88 58.4957 339.314 58.6029 339.809 58.6029C340.131 58.6029 340.421 58.558 340.681 58.468C340.944 58.3746 341.17 58.2362 341.361 58.0528C341.551 57.866 341.698 57.6342 341.802 57.3574L342.985 57.6895C342.861 58.0909 342.651 58.4438 342.357 58.7483C342.063 59.0493 341.7 59.2845 341.267 59.4541C340.835 59.6201 340.349 59.7032 339.809 59.7032ZM346.198 54.7417V59.5371H344.973V51.5656H346.156V52.8111H346.26C346.447 52.4063 346.73 52.0811 347.111 51.8354C347.492 51.5863 347.983 51.4618 348.585 51.4618C349.125 51.4618 349.597 51.5725 350.002 51.7939C350.407 52.0119 350.721 52.344 350.946 52.7904C351.171 53.2332 351.284 53.7937 351.284 54.4719V59.5371H350.059V54.5549C350.059 53.9287 349.896 53.4408 349.571 53.0914C349.246 52.7385 348.799 52.562 348.232 52.562C347.841 52.562 347.492 52.6468 347.184 52.8163C346.879 52.9858 346.639 53.2332 346.462 53.5584C346.286 53.8837 346.198 54.2781 346.198 54.7417ZM357.632 59.5371V51.5656H358.815V52.8111H358.919C359.085 52.3856 359.353 52.0551 359.724 51.8199C360.094 51.5811 360.538 51.4618 361.057 51.4618C361.583 51.4618 362.021 51.5811 362.37 51.8199C362.723 52.0551 362.998 52.3856 363.196 52.8111H363.279C363.483 52.3994 363.789 52.0724 364.197 51.8302C364.605 51.5846 365.095 51.4618 365.666 51.4618C366.379 51.4618 366.962 51.6849 367.415 52.1313C367.868 52.5741 368.095 53.2644 368.095 54.202V59.5371H366.87V54.202C366.87 53.6138 366.709 53.1934 366.387 52.9409C366.065 52.6883 365.687 52.562 365.251 52.562C364.69 52.562 364.256 52.7315 363.948 53.0706C363.64 53.4062 363.486 53.8318 363.486 54.3473V59.5371H362.241V54.0774C362.241 53.6242 362.094 53.2592 361.799 52.9824C361.505 52.7021 361.127 52.562 360.663 52.562C360.345 52.562 360.047 52.6468 359.77 52.8163C359.497 52.9858 359.275 53.2211 359.106 53.5221C358.94 53.8197 358.857 54.1639 358.857 54.5549V59.5371H357.632ZM372.68 59.7239C372.175 59.7239 371.716 59.6288 371.305 59.4385C370.893 59.2448 370.566 58.9662 370.324 58.6029C370.082 58.2362 369.96 57.7933 369.96 57.2744C369.96 56.8176 370.05 56.4474 370.23 56.1637C370.41 55.8766 370.651 55.6517 370.952 55.4891C371.253 55.3264 371.585 55.2053 371.948 55.1258C372.315 55.0427 372.683 54.977 373.054 54.9286C373.538 54.8663 373.931 54.8196 374.232 54.7884C374.536 54.7538 374.758 54.6967 374.896 54.6172C375.038 54.5376 375.109 54.3992 375.109 54.202V54.1605C375.109 53.6484 374.969 53.2505 374.688 52.9668C374.412 52.6831 373.991 52.5412 373.427 52.5412C372.842 52.5412 372.384 52.6693 372.052 52.9253C371.72 53.1813 371.486 53.4547 371.351 53.7453L370.189 53.3301C370.396 52.8457 370.673 52.4686 371.019 52.1987C371.369 51.9254 371.749 51.7351 372.161 51.6278C372.576 51.5171 372.984 51.4618 373.386 51.4618C373.642 51.4618 373.936 51.4929 374.268 51.5552C374.604 51.614 374.927 51.7368 375.238 51.9237C375.553 52.1105 375.815 52.3925 376.022 52.7696C376.23 53.1467 376.333 53.6519 376.333 54.285V59.5371H375.109V58.4576H375.046C374.963 58.6306 374.825 58.8157 374.631 59.0129C374.437 59.2102 374.18 59.378 373.858 59.5164C373.536 59.6547 373.143 59.7239 372.68 59.7239ZM372.867 58.6237C373.351 58.6237 373.759 58.5286 374.092 58.3383C374.427 58.148 374.68 57.9023 374.849 57.6013C375.022 57.3003 375.109 56.9837 375.109 56.6516V55.5306C375.057 55.5929 374.943 55.6499 374.766 55.7018C374.593 55.7503 374.393 55.7935 374.164 55.8316C373.939 55.8662 373.72 55.8973 373.505 55.925C373.294 55.9492 373.123 55.97 372.991 55.9873C372.673 56.0288 372.375 56.0963 372.099 56.1897C371.825 56.2796 371.604 56.4163 371.434 56.5997C371.268 56.7796 371.185 57.0252 371.185 57.3366C371.185 57.7622 371.343 58.084 371.657 58.3019C371.976 58.5164 372.379 58.6237 372.867 58.6237ZM381.579 59.7032C380.915 59.7032 380.328 59.5354 379.82 59.1998C379.311 58.8607 378.913 58.3832 378.626 57.7674C378.339 57.1481 378.195 56.4163 378.195 55.5721C378.195 54.7348 378.339 54.0082 378.626 53.3924C378.913 52.7765 379.313 52.3008 379.825 51.9652C380.337 51.6296 380.929 51.4618 381.6 51.4618C382.119 51.4618 382.529 51.5483 382.83 51.7213C383.134 51.8908 383.366 52.0845 383.525 52.3025C383.688 52.517 383.814 52.6935 383.904 52.8319H384.008V48.9084H385.233V59.5371H384.049V58.3123H383.904C383.814 58.4576 383.686 58.641 383.52 58.8624C383.354 59.0804 383.117 59.2759 382.809 59.4489C382.501 59.6184 382.091 59.7032 381.579 59.7032ZM381.745 58.6029C382.236 58.6029 382.652 58.4749 382.991 58.2189C383.33 57.9594 383.588 57.6013 383.764 57.1446C383.94 56.6844 384.029 56.1534 384.029 55.5513C384.029 54.9562 383.942 54.4355 383.769 53.9892C383.596 53.5394 383.34 53.19 383.001 52.9409C382.662 52.6883 382.243 52.562 381.745 52.562C381.226 52.562 380.794 52.6952 380.448 52.9616C380.105 53.2246 379.847 53.5827 379.674 54.0359C379.505 54.4857 379.42 54.9908 379.42 55.5513C379.42 56.1188 379.507 56.6343 379.68 57.0979C379.856 57.5581 380.116 57.9248 380.458 58.1981C380.804 58.468 381.233 58.6029 381.745 58.6029ZM390.988 59.7032C390.22 59.7032 389.558 59.5336 389.001 59.1946C388.447 58.8521 388.02 58.3746 387.719 57.7622C387.421 57.1463 387.272 56.4301 387.272 55.6136C387.272 54.7971 387.421 54.0774 387.719 53.4547C388.02 52.8284 388.438 52.3406 388.975 51.9911C389.514 51.6382 390.144 51.4618 390.864 51.4618C391.279 51.4618 391.689 51.531 392.094 51.6694C392.498 51.8078 392.867 52.0326 393.199 52.344C393.531 52.652 393.796 53.0602 393.993 53.5688C394.19 54.0774 394.289 54.7037 394.289 55.4475V55.9665H388.144V54.9078H393.043C393.043 54.458 392.953 54.0567 392.774 53.7038C392.597 53.3509 392.345 53.0723 392.016 52.8682C391.691 52.6641 391.307 52.562 390.864 52.562C390.376 52.562 389.954 52.6831 389.597 52.9253C389.244 53.164 388.973 53.4754 388.783 53.8595C388.592 54.2435 388.497 54.6552 388.497 55.0946V55.8004C388.497 56.4025 388.601 56.9128 388.809 57.3314C389.02 57.7466 389.312 58.0632 389.686 58.2812C390.059 58.4957 390.493 58.6029 390.988 58.6029C391.31 58.6029 391.601 58.558 391.86 58.468C392.123 58.3746 392.35 58.2362 392.54 58.0528C392.73 57.866 392.877 57.6342 392.981 57.3574L394.164 57.6895C394.04 58.0909 393.831 58.4438 393.536 58.7483C393.242 59.0493 392.879 59.2845 392.447 59.4541C392.014 59.6201 391.528 59.7032 390.988 59.7032ZM397.045 59.6201C396.789 59.6201 396.569 59.5285 396.386 59.3451C396.202 59.1617 396.111 58.942 396.111 58.686C396.111 58.43 396.202 58.2102 396.386 58.0269C396.569 57.8435 396.789 57.7518 397.045 57.7518C397.301 57.7518 397.52 57.8435 397.704 58.0269C397.887 58.2102 397.979 58.43 397.979 58.686C397.979 58.8555 397.936 59.0112 397.849 59.1531C397.766 59.2949 397.654 59.4091 397.512 59.4956C397.373 59.5786 397.218 59.6201 397.045 59.6201ZM403.872 50.0501V48.9084H411.843V50.0501H408.501V59.5371H407.214V50.0501H403.872ZM414.925 59.7239C414.42 59.7239 413.961 59.6288 413.55 59.4385C413.138 59.2448 412.811 58.9662 412.569 58.6029C412.327 58.2362 412.205 57.7933 412.205 57.2744C412.205 56.8176 412.295 56.4474 412.475 56.1637C412.655 55.8766 412.896 55.6517 413.197 55.4891C413.498 55.3264 413.83 55.2053 414.193 55.1258C414.56 55.0427 414.928 54.977 415.299 54.9286C415.783 54.8663 416.176 54.8196 416.477 54.7884C416.781 54.7538 417.003 54.6967 417.141 54.6172C417.283 54.5376 417.354 54.3992 417.354 54.202V54.1605C417.354 53.6484 417.214 53.2505 416.933 52.9668C416.657 52.6831 416.236 52.5412 415.672 52.5412C415.088 52.5412 414.629 52.6693 414.297 52.9253C413.965 53.1813 413.731 53.4547 413.596 53.7453L412.434 53.3301C412.641 52.8457 412.918 52.4686 413.264 52.1987C413.614 51.9254 413.994 51.7351 414.406 51.6278C414.821 51.5171 415.229 51.4618 415.631 51.4618C415.887 51.4618 416.181 51.4929 416.513 51.5552C416.849 51.614 417.172 51.7368 417.484 51.9237C417.798 52.1105 418.06 52.3925 418.267 52.7696C418.475 53.1467 418.579 53.6519 418.579 54.285V59.5371H417.354V58.4576H417.291C417.208 58.6306 417.07 58.8157 416.876 59.0129C416.683 59.2102 416.425 59.378 416.103 59.5164C415.781 59.6547 415.389 59.7239 414.925 59.7239ZM415.112 58.6237C415.596 58.6237 416.004 58.5286 416.337 58.3383C416.672 58.148 416.925 57.9023 417.094 57.6013C417.267 57.3003 417.354 56.9837 417.354 56.6516V55.5306C417.302 55.5929 417.188 55.6499 417.011 55.7018C416.838 55.7503 416.638 55.7935 416.409 55.8316C416.184 55.8662 415.965 55.8973 415.75 55.925C415.539 55.9492 415.368 55.97 415.236 55.9873C414.918 56.0288 414.62 56.0963 414.344 56.1897C414.07 56.2796 413.849 56.4163 413.679 56.5997C413.513 56.7796 413.43 57.0252 413.43 57.3366C413.43 57.7622 413.588 58.084 413.903 58.3019C414.221 58.5164 414.624 58.6237 415.112 58.6237ZM420.814 62.5264V51.5656H421.997V52.8319H422.143C422.233 52.6935 422.357 52.517 422.516 52.3025C422.679 52.0845 422.911 51.8908 423.212 51.7213C423.516 51.5483 423.928 51.4618 424.447 51.4618C425.118 51.4618 425.71 51.6296 426.222 51.9652C426.734 52.3008 427.134 52.7765 427.421 53.3924C427.708 54.0082 427.851 54.7348 427.851 55.5721C427.851 56.4163 427.708 57.1481 427.421 57.7674C427.134 58.3832 426.736 58.8607 426.227 59.1998C425.718 59.5354 425.132 59.7032 424.468 59.7032C423.956 59.7032 423.546 59.6184 423.238 59.4489C422.93 59.2759 422.693 59.0804 422.527 58.8624C422.361 58.641 422.233 58.4576 422.143 58.3123H422.039V62.5264H420.814ZM422.018 55.5513C422.018 56.1534 422.106 56.6844 422.283 57.1446C422.459 57.6013 422.717 57.9594 423.056 58.2189C423.395 58.4749 423.81 58.6029 424.302 58.6029C424.814 58.6029 425.241 58.468 425.583 58.1981C425.929 57.9248 426.189 57.5581 426.362 57.0979C426.538 56.6343 426.627 56.1188 426.627 55.5513C426.627 54.9908 426.54 54.4857 426.367 54.0359C426.198 53.5827 425.94 53.2246 425.594 52.9616C425.251 52.6952 424.821 52.562 424.302 52.562C423.803 52.562 423.385 52.6883 423.046 52.9409C422.707 53.19 422.451 53.5394 422.278 53.9892C422.105 54.4355 422.018 54.9562 422.018 55.5513ZM437.297 51.5656V52.6035H433.166V51.5656H437.297ZM434.37 49.6557H435.595V57.2536C435.595 57.5996 435.645 57.8591 435.745 58.0321C435.849 58.2016 435.98 58.3158 436.14 58.3746C436.302 58.43 436.473 58.4576 436.653 58.4576C436.788 58.4576 436.899 58.4507 436.986 58.4369C437.072 58.4196 437.141 58.4057 437.193 58.3954L437.442 59.4956C437.359 59.5267 437.243 59.5579 437.095 59.589C436.946 59.6236 436.757 59.6409 436.529 59.6409C436.183 59.6409 435.844 59.5665 435.512 59.4177C435.183 59.269 434.91 59.0423 434.692 58.7379C434.477 58.4334 434.37 58.0494 434.37 57.5857V49.6557ZM442.292 59.7032C441.572 59.7032 440.941 59.5319 440.398 59.1894C439.858 58.8469 439.436 58.3677 439.132 57.7518C438.83 57.136 438.68 56.4163 438.68 55.5929C438.68 54.7625 438.83 54.0376 439.132 53.4183C439.436 52.799 439.858 52.3181 440.398 51.9756C440.941 51.633 441.572 51.4618 442.292 51.4618C443.012 51.4618 443.641 51.633 444.181 51.9756C444.724 52.3181 445.146 52.799 445.447 53.4183C445.752 54.0376 445.904 54.7625 445.904 55.5929C445.904 56.4163 445.752 57.136 445.447 57.7518C445.146 58.3677 444.724 58.8469 444.181 59.1894C443.641 59.5319 443.012 59.7032 442.292 59.7032ZM442.292 58.6029C442.839 58.6029 443.289 58.4628 443.641 58.1826C443.994 57.9023 444.256 57.5338 444.425 57.0771C444.595 56.6204 444.679 56.1257 444.679 55.5929C444.679 55.06 444.595 54.5635 444.425 54.1034C444.256 53.6432 443.994 53.2713 443.641 52.9876C443.289 52.7039 442.839 52.562 442.292 52.562C441.745 52.562 441.296 52.7039 440.943 52.9876C440.59 53.2713 440.329 53.6432 440.159 54.1034C439.99 54.5635 439.905 55.06 439.905 55.5929C439.905 56.1257 439.99 56.6204 440.159 57.0771C440.329 57.5338 440.59 57.9023 440.943 58.1826C441.296 58.4628 441.745 58.6029 442.292 58.6029ZM458.403 51.5656L455.455 59.5371H454.209L451.261 51.5656H452.59L454.79 57.9179H454.873L457.074 51.5656H458.403ZM460.019 59.5371V51.5656H461.244V59.5371H460.019ZM460.642 50.237C460.403 50.237 460.197 50.1557 460.024 49.9931C459.855 49.8304 459.77 49.635 459.77 49.4066C459.77 49.1783 459.855 48.9828 460.024 48.8202C460.197 48.6575 460.403 48.5762 460.642 48.5762C460.881 48.5762 461.085 48.6575 461.254 48.8202C461.427 48.9828 461.514 49.1783 461.514 49.4066C461.514 49.635 461.427 49.8304 461.254 49.9931C461.085 50.1557 460.881 50.237 460.642 50.237ZM466.83 59.7032C466.061 59.7032 465.399 59.5336 464.842 59.1946C464.288 58.8521 463.861 58.3746 463.56 57.7622C463.262 57.1463 463.114 56.4301 463.114 55.6136C463.114 54.7971 463.262 54.0774 463.56 53.4547C463.861 52.8284 464.28 52.3406 464.816 51.9911C465.356 51.6382 465.985 51.4618 466.705 51.4618C467.12 51.4618 467.53 51.531 467.935 51.6694C468.34 51.8078 468.708 52.0326 469.04 52.344C469.373 52.652 469.637 53.0602 469.834 53.5688C470.032 54.0774 470.13 54.7037 470.13 55.4475V55.9665H463.985V54.9078H468.885C468.885 54.458 468.795 54.0567 468.615 53.7038C468.438 53.3509 468.186 53.0723 467.857 52.8682C467.532 52.6641 467.148 52.562 466.705 52.562C466.217 52.562 465.795 52.6831 465.439 52.9253C465.086 53.164 464.814 53.4754 464.624 53.8595C464.434 54.2435 464.338 54.6552 464.338 55.0946V55.8004C464.338 56.4025 464.442 56.9128 464.65 57.3314C464.861 57.7466 465.153 58.0632 465.527 58.2812C465.901 58.4957 466.335 58.6029 466.83 58.6029C467.151 58.6029 467.442 58.558 467.701 58.468C467.964 58.3746 468.191 58.2362 468.381 58.0528C468.572 57.866 468.719 57.6342 468.822 57.3574L470.006 57.6895C469.881 58.0909 469.672 58.4438 469.378 58.7483C469.084 59.0493 468.72 59.2845 468.288 59.4541C467.855 59.6201 467.369 59.7032 466.83 59.7032ZM473.799 59.5371L471.371 51.5656H472.658L474.381 57.6688H474.464L476.166 51.5656H477.474L479.155 57.648H479.238L480.961 51.5656H482.248L479.82 59.5371H478.616L476.872 53.4131H476.747L475.003 59.5371H473.799ZM491.445 51.5656V52.6035H487.314V51.5656H491.445ZM488.518 49.6557H489.743V57.2536C489.743 57.5996 489.793 57.8591 489.893 58.0321C489.997 58.2016 490.128 58.3158 490.287 58.3746C490.45 58.43 490.621 58.4576 490.801 58.4576C490.936 58.4576 491.047 58.4507 491.133 58.4369C491.22 58.4196 491.289 58.4057 491.341 58.3954L491.59 59.4956C491.507 59.5267 491.391 59.5579 491.242 59.589C491.094 59.6236 490.905 59.6409 490.677 59.6409C490.331 59.6409 489.992 59.5665 489.659 59.4177C489.331 59.269 489.057 59.0423 488.839 58.7379C488.625 58.4334 488.518 58.0494 488.518 57.5857V49.6557ZM494.683 54.7417V59.5371H493.458V48.9084H494.683V52.8111H494.787C494.974 52.3994 495.254 52.0724 495.628 51.8302C496.005 51.5846 496.507 51.4618 497.133 51.4618C497.676 51.4618 498.152 51.5708 498.56 51.7887C498.968 52.0032 499.285 52.3337 499.51 52.78C499.738 53.2228 499.852 53.7868 499.852 54.4719V59.5371H498.627V54.5549C498.627 53.9217 498.463 53.4322 498.134 53.0862C497.809 52.7367 497.358 52.562 496.78 52.562C496.379 52.562 496.019 52.6468 495.7 52.8163C495.386 52.9858 495.136 53.2332 494.953 53.5584C494.773 53.8837 494.683 54.2781 494.683 54.7417ZM505.435 59.7032C504.667 59.7032 504.005 59.5336 503.448 59.1946C502.894 58.8521 502.467 58.3746 502.166 57.7622C501.868 57.1463 501.719 56.4301 501.719 55.6136C501.719 54.7971 501.868 54.0774 502.166 53.4547C502.467 52.8284 502.885 52.3406 503.422 51.9911C503.961 51.6382 504.591 51.4618 505.311 51.4618C505.726 51.4618 506.136 51.531 506.541 51.6694C506.945 51.8078 507.314 52.0326 507.646 52.344C507.978 52.652 508.243 53.0602 508.44 53.5688C508.637 54.0774 508.736 54.7037 508.736 55.4475V55.9665H502.591V54.9078H507.49C507.49 54.458 507.4 54.0567 507.22 53.7038C507.044 53.3509 506.791 53.0723 506.463 52.8682C506.138 52.6641 505.754 52.562 505.311 52.562C504.823 52.562 504.401 52.6831 504.044 52.9253C503.691 53.164 503.42 53.4754 503.23 53.8595C503.039 54.2435 502.944 54.6552 502.944 55.0946V55.8004C502.944 56.4025 503.048 56.9128 503.255 57.3314C503.467 57.7466 503.759 58.0632 504.133 58.2812C504.506 58.4957 504.94 58.6029 505.435 58.6029C505.757 58.6029 506.048 58.558 506.307 58.468C506.57 58.3746 506.797 58.2362 506.987 58.0528C507.177 57.866 507.324 57.6342 507.428 57.3574L508.611 57.6895C508.487 58.0909 508.277 58.4438 507.983 58.7483C507.689 59.0493 507.326 59.2845 506.894 59.4541C506.461 59.6201 505.975 59.7032 505.435 59.7032ZM108.691 81.7239C108.186 81.7239 107.728 81.6288 107.316 81.4385C106.904 81.2448 106.577 80.9662 106.335 80.6029C106.093 80.2362 105.972 79.7933 105.972 79.2744C105.972 78.8176 106.062 78.4474 106.242 78.1637C106.422 77.8766 106.662 77.6517 106.963 77.4891C107.264 77.3264 107.596 77.2053 107.959 77.1258C108.326 77.0427 108.695 76.977 109.065 76.9286C109.549 76.8663 109.942 76.8196 110.243 76.7884C110.547 76.7538 110.769 76.6967 110.907 76.6172C111.049 76.5376 111.12 76.3992 111.12 76.202V76.1605C111.12 75.6484 110.98 75.2505 110.7 74.9668C110.423 74.6831 110.002 74.5412 109.439 74.5412C108.854 74.5412 108.395 74.6693 108.063 74.9253C107.731 75.1813 107.498 75.4547 107.363 75.7453L106.2 75.3301C106.408 74.8457 106.684 74.4686 107.03 74.1987C107.38 73.9254 107.76 73.7351 108.172 73.6278C108.587 73.5171 108.996 73.4618 109.397 73.4618C109.653 73.4618 109.947 73.4929 110.279 73.5552C110.615 73.614 110.938 73.7368 111.25 73.9237C111.565 74.1105 111.826 74.3925 112.033 74.7696C112.241 75.1467 112.345 75.6519 112.345 76.285V81.5371H111.12V80.4576H111.058C110.975 80.6306 110.836 80.8157 110.643 81.0129C110.449 81.2102 110.191 81.378 109.869 81.5164C109.548 81.6547 109.155 81.7239 108.691 81.7239ZM108.878 80.6237C109.362 80.6237 109.771 80.5286 110.103 80.3383C110.438 80.148 110.691 79.9023 110.861 79.6013C111.034 79.3003 111.12 78.9837 111.12 78.6516V77.5306C111.068 77.5929 110.954 77.6499 110.777 77.7018C110.605 77.7503 110.404 77.7935 110.175 77.8316C109.951 77.8662 109.731 77.8973 109.516 77.925C109.305 77.9492 109.134 77.97 109.003 77.9873C108.684 78.0288 108.387 78.0963 108.11 78.1897C107.837 78.2796 107.615 78.4163 107.446 78.5997C107.28 78.7796 107.197 79.0252 107.197 79.3366C107.197 79.7622 107.354 80.084 107.669 80.3019C107.987 80.5164 108.39 80.6237 108.878 80.6237ZM114.58 84.5264V73.5656H115.764V74.8319H115.909C115.999 74.6935 116.123 74.517 116.283 74.3025C116.445 74.0845 116.677 73.8908 116.978 73.7213C117.282 73.5483 117.694 73.4618 118.213 73.4618C118.884 73.4618 119.476 73.6296 119.988 73.9652C120.5 74.3008 120.9 74.7765 121.187 75.3924C121.474 76.0082 121.618 76.7348 121.618 77.5721C121.618 78.4163 121.474 79.1481 121.187 79.7674C120.9 80.3832 120.502 80.8607 119.993 81.1998C119.485 81.5354 118.898 81.7032 118.234 81.7032C117.722 81.7032 117.312 81.6184 117.004 81.4489C116.696 81.2759 116.459 81.0804 116.293 80.8624C116.127 80.641 115.999 80.4576 115.909 80.3123H115.805V84.5264H114.58ZM115.784 77.5513C115.784 78.1534 115.873 78.6844 116.049 79.1446C116.226 79.6013 116.483 79.9594 116.822 80.2189C117.161 80.4749 117.577 80.6029 118.068 80.6029C118.58 80.6029 119.007 80.468 119.35 80.1981C119.696 79.9248 119.955 79.5581 120.128 79.0979C120.305 78.6343 120.393 78.1188 120.393 77.5513C120.393 76.9908 120.306 76.4857 120.133 76.0359C119.964 75.5827 119.706 75.2246 119.36 74.9616C119.018 74.6952 118.587 74.562 118.068 74.562C117.57 74.562 117.151 74.6883 116.812 74.9409C116.473 75.19 116.217 75.5394 116.044 75.9892C115.871 76.4355 115.784 76.9562 115.784 77.5513ZM123.486 84.5264V73.5656H124.669V74.8319H124.815C124.905 74.6935 125.029 74.517 125.188 74.3025C125.351 74.0845 125.583 73.8908 125.884 73.7213C126.188 73.5483 126.6 73.4618 127.119 73.4618C127.79 73.4618 128.382 73.6296 128.894 73.9652C129.406 74.3008 129.805 74.7765 130.093 75.3924C130.38 76.0082 130.523 76.7348 130.523 77.5721C130.523 78.4163 130.38 79.1481 130.093 79.7674C129.805 80.3832 129.408 80.8607 128.899 81.1998C128.39 81.5354 127.804 81.7032 127.14 81.7032C126.628 81.7032 126.218 81.6184 125.91 81.4489C125.602 81.2759 125.365 81.0804 125.199 80.8624C125.033 80.641 124.905 80.4576 124.815 80.3123H124.711V84.5264H123.486ZM124.69 77.5513C124.69 78.1534 124.778 78.6844 124.955 79.1446C125.131 79.6013 125.389 79.9594 125.728 80.2189C126.067 80.4749 126.482 80.6029 126.974 80.6029C127.486 80.6029 127.913 80.468 128.255 80.1981C128.601 79.9248 128.861 79.5581 129.034 79.0979C129.21 78.6343 129.299 78.1188 129.299 77.5513C129.299 76.9908 129.212 76.4857 129.039 76.0359C128.87 75.5827 128.612 75.2246 128.266 74.9616C127.923 74.6952 127.493 74.562 126.974 74.562C126.475 74.562 126.057 74.6883 125.718 74.9409C125.379 75.19 125.123 75.5394 124.95 75.9892C124.777 76.4355 124.69 76.9562 124.69 77.5513ZM135.63 81.7032C134.911 81.7032 134.279 81.5319 133.736 81.1894C133.196 80.8469 132.774 80.3677 132.47 79.7518C132.169 79.136 132.018 78.4163 132.018 77.5929C132.018 76.7625 132.169 76.0376 132.47 75.4183C132.774 74.799 133.196 74.3181 133.736 73.9756C134.279 73.633 134.911 73.4618 135.63 73.4618C136.35 73.4618 136.98 73.633 137.519 73.9756C138.062 74.3181 138.485 74.799 138.786 75.4183C139.09 76.0376 139.242 76.7625 139.242 77.5929C139.242 78.4163 139.09 79.136 138.786 79.7518C138.485 80.3677 138.062 80.8469 137.519 81.1894C136.98 81.5319 136.35 81.7032 135.63 81.7032ZM135.63 80.6029C136.177 80.6029 136.627 80.4628 136.98 80.1826C137.332 79.9023 137.594 79.5338 137.763 79.0771C137.933 78.6204 138.018 78.1257 138.018 77.5929C138.018 77.06 137.933 76.5635 137.763 76.1034C137.594 75.6432 137.332 75.2713 136.98 74.9876C136.627 74.7039 136.177 74.562 135.63 74.562C135.084 74.562 134.634 74.7039 134.281 74.9876C133.928 75.2713 133.667 75.6432 133.497 76.1034C133.328 76.5635 133.243 77.06 133.243 77.5929C133.243 78.1257 133.328 78.6204 133.497 79.0771C133.667 79.5338 133.928 79.9023 134.281 80.1826C134.634 80.4628 135.084 80.6029 135.63 80.6029ZM141.112 81.5371V73.5656H142.337V81.5371H141.112ZM141.735 72.237C141.496 72.237 141.29 72.1557 141.117 71.9931C140.948 71.8304 140.863 71.635 140.863 71.4066C140.863 71.1783 140.948 70.9828 141.117 70.8202C141.29 70.6575 141.496 70.5762 141.735 70.5762C141.973 70.5762 142.178 70.6575 142.347 70.8202C142.52 70.9828 142.607 71.1783 142.607 71.4066C142.607 71.635 142.52 71.8304 142.347 71.9931C142.178 72.1557 141.973 72.237 141.735 72.237ZM145.805 76.7417V81.5371H144.58V73.5656H145.763V74.8111H145.867C146.054 74.4063 146.338 74.0811 146.718 73.8354C147.099 73.5863 147.59 73.4618 148.192 73.4618C148.732 73.4618 149.204 73.5725 149.609 73.7939C150.014 74.0119 150.329 74.344 150.553 74.7904C150.778 75.2332 150.891 75.7937 150.891 76.4719V81.5371H149.666V76.5549C149.666 75.9287 149.503 75.4408 149.178 75.0914C148.853 74.7385 148.407 74.562 147.839 74.562C147.448 74.562 147.099 74.6468 146.791 74.8163C146.486 74.9858 146.246 75.2332 146.069 75.5584C145.893 75.8837 145.805 76.2781 145.805 76.7417ZM156.596 73.5656V74.6035H152.465V73.5656H156.596ZM153.669 71.6557H154.893V79.2536C154.893 79.5996 154.944 79.8591 155.044 80.0321C155.148 80.2016 155.279 80.3158 155.438 80.3746C155.601 80.43 155.772 80.4576 155.952 80.4576C156.087 80.4576 156.198 80.4507 156.284 80.4369C156.371 80.4196 156.44 80.4057 156.492 80.3954L156.741 81.4956C156.658 81.5267 156.542 81.5579 156.393 81.589C156.245 81.6236 156.056 81.6409 155.828 81.6409C155.482 81.6409 155.143 81.5665 154.81 81.4177C154.482 81.269 154.208 81.0423 153.99 80.7379C153.776 80.4334 153.669 80.0494 153.669 79.5857V71.6557ZM158.438 81.5371V73.5656H159.621V74.8111H159.725C159.891 74.3856 160.159 74.0551 160.53 73.8199C160.9 73.5811 161.344 73.4618 161.863 73.4618C162.389 73.4618 162.827 73.5811 163.176 73.8199C163.529 74.0551 163.804 74.3856 164.002 74.8111H164.085C164.289 74.3994 164.595 74.0724 165.003 73.8302C165.411 73.5846 165.901 73.4618 166.472 73.4618C167.185 73.4618 167.768 73.6849 168.221 74.1313C168.674 74.5741 168.901 75.2644 168.901 76.202V81.5371H167.676V76.202C167.676 75.6138 167.515 75.1934 167.193 74.9409C166.872 74.6883 166.493 74.562 166.057 74.562C165.496 74.562 165.062 74.7315 164.754 75.0706C164.446 75.4062 164.292 75.8318 164.292 76.3473V81.5371H163.047V76.0774C163.047 75.6242 162.9 75.2592 162.606 74.9824C162.311 74.7021 161.933 74.562 161.469 74.562C161.151 74.562 160.853 74.6468 160.576 74.8163C160.303 74.9858 160.082 75.2211 159.912 75.5221C159.746 75.8197 159.663 76.1639 159.663 76.5549V81.5371H158.438ZM174.482 81.7032C173.714 81.7032 173.052 81.5336 172.495 81.1946C171.941 80.8521 171.514 80.3746 171.213 79.7622C170.915 79.1463 170.766 78.4301 170.766 77.6136C170.766 76.7971 170.915 76.0774 171.213 75.4547C171.514 74.8284 171.932 74.3406 172.469 73.9911C173.008 73.6382 173.638 73.4618 174.358 73.4618C174.773 73.4618 175.183 73.531 175.588 73.6694C175.993 73.8078 176.361 74.0326 176.693 74.344C177.025 74.652 177.29 75.0602 177.487 75.5688C177.685 76.0774 177.783 76.7037 177.783 77.4475V77.9665H171.638V76.9078H176.538C176.538 76.458 176.448 76.0567 176.268 75.7038C176.091 75.3509 175.839 75.0723 175.51 74.8682C175.185 74.6641 174.801 74.562 174.358 74.562C173.87 74.562 173.448 74.6831 173.092 74.9253C172.739 75.164 172.467 75.4754 172.277 75.8595C172.086 76.2435 171.991 76.6552 171.991 77.0946V77.8004C171.991 78.4025 172.095 78.9128 172.303 79.3314C172.514 79.7466 172.806 80.0632 173.18 80.2812C173.553 80.4957 173.988 80.6029 174.482 80.6029C174.804 80.6029 175.095 80.558 175.354 80.468C175.617 80.3746 175.844 80.2362 176.034 80.0528C176.224 79.866 176.371 79.6342 176.475 79.3574L177.659 79.6895C177.534 80.0909 177.325 80.4438 177.031 80.7483C176.737 81.0493 176.373 81.2845 175.941 81.4541C175.508 81.6201 175.022 81.7032 174.482 81.7032ZM180.871 76.7417V81.5371H179.646V73.5656H180.83V74.8111H180.933C181.12 74.4063 181.404 74.0811 181.784 73.8354C182.165 73.5863 182.656 73.4618 183.258 73.4618C183.798 73.4618 184.27 73.5725 184.675 73.7939C185.08 74.0119 185.395 74.344 185.62 74.7904C185.845 75.2332 185.957 75.7937 185.957 76.4719V81.5371H184.732V76.5549C184.732 75.9287 184.57 75.4408 184.244 75.0914C183.919 74.7385 183.473 74.562 182.905 74.562C182.514 74.562 182.165 74.6468 181.857 74.8163C181.553 74.9858 181.312 75.2332 181.136 75.5584C180.959 75.8837 180.871 76.2781 180.871 76.7417ZM191.662 73.5656V74.6035H187.531V73.5656H191.662ZM188.735 71.6557H189.96V79.2536C189.96 79.5996 190.01 79.8591 190.11 80.0321C190.214 80.2016 190.345 80.3158 190.505 80.3746C190.667 80.43 190.839 80.4576 191.018 80.4576C191.153 80.4576 191.264 80.4507 191.351 80.4369C191.437 80.4196 191.506 80.4057 191.558 80.3954L191.807 81.4956C191.724 81.5267 191.608 81.5579 191.46 81.589C191.311 81.6236 191.122 81.6409 190.894 81.6409C190.548 81.6409 190.209 81.5665 189.877 81.4177C189.548 81.269 189.275 81.0423 189.057 80.7379C188.842 80.4334 188.735 80.0494 188.735 79.5857V71.6557ZM200.625 81.7032C199.96 81.7032 199.374 81.5354 198.865 81.1998C198.357 80.8607 197.959 80.3832 197.672 79.7674C197.385 79.1481 197.241 78.4163 197.241 77.5721C197.241 76.7348 197.385 76.0082 197.672 75.3924C197.959 74.7765 198.359 74.3008 198.871 73.9652C199.383 73.6296 199.974 73.4618 200.646 73.4618C201.165 73.4618 201.574 73.5483 201.876 73.7213C202.18 73.8908 202.412 74.0845 202.571 74.3025C202.734 74.517 202.86 74.6935 202.95 74.8319H203.054V70.9084H204.278V81.5371H203.095V80.3123H202.95C202.86 80.4576 202.732 80.641 202.566 80.8624C202.4 81.0804 202.163 81.2759 201.855 81.4489C201.547 81.6184 201.137 81.7032 200.625 81.7032ZM200.791 80.6029C201.282 80.6029 201.697 80.4749 202.036 80.2189C202.375 79.9594 202.633 79.6013 202.81 79.1446C202.986 78.6844 203.074 78.1534 203.074 77.5513C203.074 76.9562 202.988 76.4355 202.815 75.9892C202.642 75.5394 202.386 75.19 202.047 74.9409C201.708 74.6883 201.289 74.562 200.791 74.562C200.272 74.562 199.839 74.6952 199.493 74.9616C199.151 75.2246 198.893 75.5827 198.72 76.0359C198.551 76.4857 198.466 76.9908 198.466 77.5513C198.466 78.1188 198.552 78.6343 198.725 79.0979C198.902 79.5581 199.161 79.9248 199.504 80.1981C199.85 80.468 200.279 80.6029 200.791 80.6029ZM210.034 81.7032C209.266 81.7032 208.603 81.5336 208.046 81.1946C207.493 80.8521 207.065 80.3746 206.764 79.7622C206.467 79.1463 206.318 78.4301 206.318 77.6136C206.318 76.7971 206.467 76.0774 206.764 75.4547C207.065 74.8284 207.484 74.3406 208.02 73.9911C208.56 73.6382 209.19 73.4618 209.909 73.4618C210.325 73.4618 210.735 73.531 211.139 73.6694C211.544 73.8078 211.913 74.0326 212.245 74.344C212.577 74.652 212.842 75.0602 213.039 75.5688C213.236 76.0774 213.335 76.7037 213.335 77.4475V77.9665H207.19V76.9078H212.089C212.089 76.458 211.999 76.0567 211.819 75.7038C211.643 75.3509 211.39 75.0723 211.061 74.8682C210.736 74.6641 210.352 74.562 209.909 74.562C209.421 74.562 208.999 74.6831 208.643 74.9253C208.29 75.164 208.019 75.4754 207.828 75.8595C207.638 76.2435 207.543 76.6552 207.543 77.0946V77.8004C207.543 78.4025 207.647 78.9128 207.854 79.3314C208.065 79.7466 208.358 80.0632 208.731 80.2812C209.105 80.4957 209.539 80.6029 210.034 80.6029C210.356 80.6029 210.646 80.558 210.906 80.468C211.169 80.3746 211.395 80.2362 211.586 80.0528C211.776 79.866 211.923 79.6342 212.027 79.3574L213.21 79.6895C213.085 80.0909 212.876 80.4438 212.582 80.7483C212.288 81.0493 211.925 81.2845 211.492 81.4541C211.06 81.6201 210.574 81.7032 210.034 81.7032ZM218.665 73.5656V74.6035H214.533V73.5656H218.665ZM215.737 71.6557H216.962V79.2536C216.962 79.5996 217.012 79.8591 217.113 80.0321C217.217 80.2016 217.348 80.3158 217.507 80.3746C217.67 80.43 217.841 80.4576 218.021 80.4576C218.156 80.4576 218.267 80.4507 218.353 80.4369C218.44 80.4196 218.509 80.4057 218.561 80.3954L218.81 81.4956C218.727 81.5267 218.611 81.5579 218.462 81.589C218.313 81.6236 218.125 81.6409 217.896 81.6409C217.55 81.6409 217.211 81.5665 216.879 81.4177C216.551 81.269 216.277 81.0423 216.059 80.7379C215.845 80.4334 215.737 80.0494 215.737 79.5857V71.6557ZM222.853 81.7239C222.348 81.7239 221.889 81.6288 221.477 81.4385C221.066 81.2448 220.739 80.9662 220.497 80.6029C220.254 80.2362 220.133 79.7933 220.133 79.2744C220.133 78.8176 220.223 78.4474 220.403 78.1637C220.583 77.8766 220.823 77.6517 221.125 77.4891C221.426 77.3264 221.758 77.2053 222.121 77.1258C222.488 77.0427 222.856 76.977 223.226 76.9286C223.711 76.8663 224.103 76.8196 224.404 76.7884C224.709 76.7538 224.93 76.6967 225.069 76.6172C225.211 76.5376 225.282 76.3992 225.282 76.202V76.1605C225.282 75.6484 225.141 75.2505 224.861 74.9668C224.584 74.6831 224.164 74.5412 223.6 74.5412C223.015 74.5412 222.557 74.6693 222.225 74.9253C221.893 75.1813 221.659 75.4547 221.524 75.7453L220.362 75.3301C220.569 74.8457 220.846 74.4686 221.192 74.1987C221.541 73.9254 221.922 73.7351 222.334 73.6278C222.749 73.5171 223.157 73.4618 223.559 73.4618C223.815 73.4618 224.109 73.4929 224.441 73.5552C224.776 73.614 225.1 73.7368 225.411 73.9237C225.726 74.1105 225.987 74.3925 226.195 74.7696C226.403 75.1467 226.506 75.6519 226.506 76.285V81.5371H225.282V80.4576H225.219C225.136 80.6306 224.998 80.8157 224.804 81.0129C224.61 81.2102 224.353 81.378 224.031 81.5164C223.709 81.6547 223.316 81.7239 222.853 81.7239ZM223.04 80.6237C223.524 80.6237 223.932 80.5286 224.264 80.3383C224.6 80.148 224.853 79.9023 225.022 79.6013C225.195 79.3003 225.282 78.9837 225.282 78.6516V77.5306C225.23 77.5929 225.115 77.6499 224.939 77.7018C224.766 77.7503 224.565 77.7935 224.337 77.8316C224.112 77.8662 223.892 77.8973 223.678 77.925C223.467 77.9492 223.296 77.97 223.164 77.9873C222.846 78.0288 222.548 78.0963 222.271 78.1897C221.998 78.2796 221.777 78.4163 221.607 78.5997C221.441 78.7796 221.358 79.0252 221.358 79.3366C221.358 79.7622 221.515 80.084 221.83 80.3019C222.149 80.5164 222.552 80.6237 223.04 80.6237ZM228.742 81.5371V73.5656H229.967V81.5371H228.742ZM229.365 72.237C229.126 72.237 228.92 72.1557 228.747 71.9931C228.578 71.8304 228.493 71.635 228.493 71.4066C228.493 71.1783 228.578 70.9828 228.747 70.8202C228.92 70.6575 229.126 70.5762 229.365 70.5762C229.603 70.5762 229.807 70.6575 229.977 70.8202C230.15 70.9828 230.237 71.1783 230.237 71.4066C230.237 71.635 230.15 71.8304 229.977 71.9931C229.807 72.1557 229.603 72.237 229.365 72.237ZM233.435 70.9084V81.5371H232.21V70.9084H233.435ZM241.325 75.3509L240.224 75.6622C240.155 75.4789 240.053 75.3007 239.918 75.1277C239.787 74.9512 239.607 74.8059 239.378 74.6918C239.15 74.5776 238.858 74.5205 238.501 74.5205C238.013 74.5205 237.607 74.6329 237.282 74.8578C236.96 75.0793 236.799 75.3612 236.799 75.7038C236.799 76.0082 236.91 76.2487 237.131 76.4251C237.353 76.6016 237.699 76.7486 238.169 76.8663L239.352 77.1569C240.065 77.3299 240.596 77.5946 240.946 77.951C241.295 78.3039 241.47 78.7588 241.47 79.3159C241.47 79.7726 241.338 80.1808 241.075 80.5407C240.816 80.9005 240.453 81.1842 239.986 81.3918C239.518 81.5994 238.975 81.7032 238.356 81.7032C237.543 81.7032 236.87 81.5267 236.337 81.1738C235.804 80.8209 235.467 80.3054 235.325 79.6273L236.488 79.3366C236.598 79.7657 236.808 80.0874 237.116 80.3019C237.427 80.5164 237.834 80.6237 238.335 80.6237C238.906 80.6237 239.359 80.5026 239.695 80.2604C240.034 80.0148 240.204 79.7207 240.204 79.3781C240.204 79.1014 240.107 78.8695 239.913 78.6827C239.719 78.4924 239.422 78.3506 239.02 78.2572L237.692 77.9458C236.962 77.7728 236.425 77.5046 236.083 77.1413C235.744 76.7746 235.574 76.3162 235.574 75.766C235.574 75.3163 235.701 74.9184 235.953 74.5724C236.209 74.2264 236.557 73.9548 236.996 73.7576C237.439 73.5604 237.941 73.4618 238.501 73.4618C239.29 73.4618 239.909 73.6348 240.359 73.9807C240.812 74.3267 241.134 74.7834 241.325 75.3509Z" fill="#232323"/>
</svg>
