<svg width="22" height="24" viewBox="0 0 22 24" fill="none" xmlns="http://www.w3.org/2000/svg">
<g clip-path="url(#clip0_1261_4658)">
<path d="M18.3968 4.71288C18.3803 4.59288 18.2752 4.52646 18.1883 4.51915C17.5477 4.47101 16.9071 4.42326 16.2664 4.37589C16.2664 4.37589 14.9919 3.11055 14.852 2.97049C14.712 2.83052 14.4386 2.87309 14.3325 2.90433C14.3169 2.90893 14.0541 2.99005 13.6193 3.1246C13.1935 1.89945 12.4421 0.773587 11.1202 0.773587C11.0837 0.773587 11.0462 0.775067 11.0086 0.777204C10.6327 0.280026 10.167 0.0640259 9.76472 0.0640259C6.6854 0.0640259 5.21425 3.91348 4.75299 5.86964C3.55645 6.24041 2.70642 6.504 2.59784 6.53811C1.92995 6.74761 1.90883 6.76866 1.82113 7.398C1.75513 7.87446 0.00756836 21.3892 0.00756836 21.3892L13.6249 23.9406L21.0033 22.3444C21.0033 22.3444 18.4131 4.83288 18.3968 4.71288ZM12.8666 3.35737L11.7144 3.714C11.7148 3.63279 11.7152 3.5529 11.7152 3.46553C11.7152 2.70411 11.6095 2.09104 11.44 1.60504C12.1211 1.69052 12.5747 2.46551 12.8666 3.35737ZM10.595 1.75603C10.7844 2.23052 10.9075 2.91148 10.9075 3.83038C10.9075 3.8774 10.9071 3.92038 10.9067 3.96386C10.1573 4.19597 9.34307 4.44797 8.52699 4.70079C8.98521 2.93235 9.84412 2.07822 10.595 1.75603ZM9.68014 0.889971C9.81305 0.889971 9.94694 0.935094 10.0751 1.02329C9.0882 1.48767 8.03039 2.65726 7.58368 4.9929L5.70264 5.57548C6.22587 3.79397 7.46836 0.889971 9.68014 0.889971Z" fill="#95BF46"/>
<path d="M18.1883 4.51915C17.5477 4.47102 16.9071 4.42326 16.2664 4.37589C16.2664 4.37589 14.9919 3.11055 14.852 2.97049C14.7996 2.91838 14.729 2.89167 14.6552 2.88017L13.6256 23.9404L21.0033 22.3444C21.0033 22.3444 18.4131 4.83288 18.3968 4.71288C18.3803 4.59288 18.2752 4.52647 18.1883 4.51915Z" fill="#5E8E3E"/>
<path d="M11.1202 8.59603L10.2104 11.3023C10.2104 11.3023 9.41335 10.8768 8.43625 10.8768C7.00381 10.8768 6.93173 11.7758 6.93173 12.0023C6.93173 13.2383 10.1537 13.7119 10.1537 16.607C10.1537 18.8848 8.70897 20.3515 6.76102 20.3515C4.42349 20.3515 3.22809 18.8967 3.22809 18.8967L3.85398 16.8288C3.85398 16.8288 5.08275 17.8837 6.1196 17.8837C6.7971 17.8837 7.07269 17.3503 7.07269 16.9605C7.07269 15.3482 4.4294 15.2763 4.4294 12.627C4.4294 10.3973 6.02984 8.23948 9.26047 8.23948C10.5053 8.23948 11.1202 8.59603 11.1202 8.59603Z" fill="white"/>
</g>
<defs>
<clipPath id="clip0_1261_4658">
<rect width="21.05" height="24" fill="white"/>
</clipPath>
</defs>
</svg>
