<svg width="24" height="24" viewBox="0 0 24 24" fill="none" xmlns="http://www.w3.org/2000/svg">
<g clip-path="url(#clip0_1261_4608)">
<path d="M18.9495 11.4795C18.9495 10.2075 18.492 9.327 18.1005 8.6415L17.9805 8.4465C17.505 7.6815 17.0895 7.0095 17.0895 6.2265C17.0895 5.2815 17.8065 4.3995 18.8175 4.3995C18.8475 4.3995 18.8765 4.401 18.9045 4.404L18.951 4.4085C17.0551 2.66746 14.574 1.70267 12 1.7055C10.2941 1.7053 8.61494 2.12919 7.11357 2.93906C5.61219 3.74892 4.33571 4.91933 3.39898 6.345C3.63898 6.3525 3.86847 6.3585 4.06198 6.3585C5.13748 6.3585 6.80398 6.228 6.80398 6.228C7.35897 6.195 7.42498 7.0095 6.86998 7.0755C6.86998 7.0755 6.31348 7.1415 5.69248 7.173L9.44248 18.324L11.6925 11.565L10.0875 7.1715C9.53397 7.1385 9.00898 7.074 9.00898 7.074C8.45398 7.041 8.51997 6.192 9.07347 6.225C9.07347 6.225 10.7745 6.3555 11.7855 6.3555C12.8625 6.3555 14.5305 6.225 14.5305 6.225C15.0855 6.192 15.15 7.008 14.595 7.074C14.595 7.074 14.037 7.1385 13.4175 7.1715L17.1375 18.237L18.1635 14.8065L18.2445 14.547C18.6495 13.257 18.948 12.3045 18.948 11.478L18.9495 11.4795ZM1.70548 12C1.70467 13.9333 2.2485 15.8277 3.27465 17.4661C4.30081 19.1046 5.76778 20.4208 7.50748 21.264L2.59498 7.809C2.00512 9.12727 1.70193 10.5558 1.70548 12Z" fill="white"/>
<path d="M9.09149 21.8745L12.1815 12.9L15.345 21.57C15.365 21.62 15.3895 21.667 15.4185 21.711C13.3792 22.4299 11.1652 22.4871 9.09149 21.8745ZM21.0315 7.0605C21.0775 7.3885 21.101 7.7415 21.102 8.1195C21.102 9.1635 20.907 10.338 20.319 11.8065L17.175 20.8965C19.4951 19.5485 21.1968 17.3476 21.9175 14.763C22.6382 12.1784 22.3208 9.41448 21.033 7.0605H21.0315Z" fill="white"/>
<path fill-rule="evenodd" clip-rule="evenodd" d="M0 12C0 5.3835 5.3835 0 12 0C18.6165 0 24 5.3835 24 12C24 18.6165 18.615 24 12 24C5.385 24 0 18.6165 0 12ZM0.5505 12C0.5505 18.3135 5.6865 23.4495 12 23.4495C18.3135 23.4495 23.448 18.3135 23.448 12C23.448 5.685 18.312 0.5505 12 0.5505C5.685 0.5505 0.5505 5.685 0.5505 12Z" fill="white"/>
</g>
<defs>
<clipPath id="clip0_1261_4608">
<rect width="24" height="24" fill="white"/>
</clipPath>
</defs>
</svg>
